<?xml version="1.0" encoding="UTF-8" standalone="no"?>
<!DOCTYPE svg PUBLIC "-//W3C//DTD SVG 1.1//EN"
 "http://www.w3.org/Graphics/SVG/1.1/DTD/svg11.dtd">
<!-- Generated by graphviz version 2.44.0 (0)
 -->
<!-- Pages: 1 -->
<svg width="2822pt" height="2132pt"
 viewBox="0.00 0.00 2822.17 2132.00" xmlns="http://www.w3.org/2000/svg" xmlns:xlink="http://www.w3.org/1999/xlink">
<g id="graph0" class="graph" transform="scale(1 1) rotate(0) translate(4 2128)">
<polygon fill="white" stroke="transparent" points="-4,4 -4,-2128 2818.17,-2128 2818.17,4 -4,4"/>
<!-- Spegnimento delle VM dai compute&#45;node da liberare -->
<g id="node1" class="node">
<title>Spegnimento delle VM dai compute&#45;node da liberare</title>
<ellipse fill="none" stroke="black" cx="2087.04" cy="-2106" rx="248.06" ry="18"/>
<text text-anchor="middle" x="2087.04" y="-2102.3" font-family="Times-Roman" font-size="14.00">Spegnimento delle VM dai compute&#45;node da liberare</text>
</g>
<!-- Migrazione delle VM dai compute&#45;node da liberare -->
<g id="node2" class="node">
<title>Migrazione delle VM dai compute&#45;node da liberare</title>
<ellipse fill="none" stroke="black" cx="1847.04" cy="-2034" rx="237.46" ry="18"/>
<text text-anchor="middle" x="1847.04" y="-2030.3" font-family="Times-Roman" font-size="14.00">Migrazione delle VM dai compute&#45;node da liberare</text>
</g>
<!-- Spegnimento delle VM dai compute&#45;node da liberare&#45;&gt;Migrazione delle VM dai compute&#45;node da liberare -->
<g id="edge1" class="edge">
<title>Spegnimento delle VM dai compute&#45;node da liberare&#45;&gt;Migrazione delle VM dai compute&#45;node da liberare</title>
<path fill="none" stroke="black" d="M2030.16,-2088.41C1995.17,-2078.2 1950.17,-2065.08 1913.53,-2054.39"/>
<polygon fill="black" stroke="black" points="1914.5,-2051.03 1903.92,-2051.59 1912.54,-2057.75 1914.5,-2051.03"/>
</g>
<!-- Spegnimento delle VM dagli altri compute node -->
<g id="node3" class="node">
<title>Spegnimento delle VM dagli altri compute node</title>
<ellipse fill="none" stroke="black" cx="2328.04" cy="-2034" rx="225.56" ry="18"/>
<text text-anchor="middle" x="2328.04" y="-2030.3" font-family="Times-Roman" font-size="14.00">Spegnimento delle VM dagli altri compute node</text>
</g>
<!-- Spegnimento delle VM dai compute&#45;node da liberare&#45;&gt;Spegnimento delle VM dagli altri compute node -->
<g id="edge2" class="edge">
<title>Spegnimento delle VM dai compute&#45;node da liberare&#45;&gt;Spegnimento delle VM dagli altri compute node</title>
<path fill="none" stroke="black" d="M2144.15,-2088.41C2179.42,-2078.17 2224.81,-2064.98 2261.67,-2054.28"/>
<polygon fill="black" stroke="black" points="2262.71,-2057.62 2271.34,-2051.47 2260.76,-2050.9 2262.71,-2057.62"/>
</g>
<!-- Spegnimento Openstack su tutti i compute node (via puppet) e t2&#45;cld&#45;nat -->
<g id="node4" class="node">
<title>Spegnimento Openstack su tutti i compute node (via puppet) e t2&#45;cld&#45;nat</title>
<ellipse fill="none" stroke="black" cx="2087.04" cy="-1962" rx="343.34" ry="18"/>
<text text-anchor="middle" x="2087.04" y="-1958.3" font-family="Times-Roman" font-size="14.00">Spegnimento Openstack su tutti i compute node (via puppet) e t2&#45;cld&#45;nat</text>
</g>
<!-- Migrazione delle VM dai compute&#45;node da liberare&#45;&gt;Spegnimento Openstack su tutti i compute node (via puppet) e t2&#45;cld&#45;nat -->
<g id="edge3" class="edge">
<title>Migrazione delle VM dai compute&#45;node da liberare&#45;&gt;Spegnimento Openstack su tutti i compute node (via puppet) e t2&#45;cld&#45;nat</title>
<path fill="none" stroke="black" d="M1903.61,-2016.5C1938.47,-2006.33 1983.35,-1993.24 2019.99,-1982.56"/>
<polygon fill="black" stroke="black" points="2020.98,-1985.91 2029.6,-1979.75 2019.02,-1979.19 2020.98,-1985.91"/>
</g>
<!-- Spegnimento delle VM dagli altri compute node&#45;&gt;Spegnimento Openstack su tutti i compute node (via puppet) e t2&#45;cld&#45;nat -->
<g id="edge4" class="edge">
<title>Spegnimento delle VM dagli altri compute node&#45;&gt;Spegnimento Openstack su tutti i compute node (via puppet) e t2&#45;cld&#45;nat</title>
<path fill="none" stroke="black" d="M2271.23,-2016.5C2236.23,-2006.33 2191.17,-1993.24 2154.37,-1982.56"/>
<polygon fill="black" stroke="black" points="2155.3,-1979.18 2144.72,-1979.75 2153.35,-1985.9 2155.3,-1979.18"/>
</g>
<!-- Spegnimento OpenStack sui controller node -->
<g id="node5" class="node">
<title>Spegnimento OpenStack sui controller node</title>
<ellipse fill="none" stroke="black" cx="2087.04" cy="-1890" rx="209.86" ry="18"/>
<text text-anchor="middle" x="2087.04" y="-1886.3" font-family="Times-Roman" font-size="14.00">Spegnimento OpenStack sui controller node</text>
</g>
<!-- Spegnimento Openstack su tutti i compute node (via puppet) e t2&#45;cld&#45;nat&#45;&gt;Spegnimento OpenStack sui controller node -->
<g id="edge5" class="edge">
<title>Spegnimento Openstack su tutti i compute node (via puppet) e t2&#45;cld&#45;nat&#45;&gt;Spegnimento OpenStack sui controller node</title>
<path fill="none" stroke="black" d="M2087.04,-1943.7C2087.04,-1935.98 2087.04,-1926.71 2087.04,-1918.11"/>
<polygon fill="black" stroke="black" points="2090.54,-1918.1 2087.04,-1908.1 2083.54,-1918.1 2090.54,-1918.1"/>
</g>
<!-- Spegnimento cld&#45;storage&#45;01 -->
<g id="node6" class="node">
<title>Spegnimento cld&#45;storage&#45;01</title>
<ellipse fill="none" stroke="black" cx="2150.04" cy="-1746" rx="139.98" ry="18"/>
<text text-anchor="middle" x="2150.04" y="-1742.3" font-family="Times-Roman" font-size="14.00">Spegnimento cld&#45;storage&#45;01</text>
</g>
<!-- Spegnimento OpenStack sui controller node&#45;&gt;Spegnimento cld&#45;storage&#45;01 -->
<g id="edge6" class="edge">
<title>Spegnimento OpenStack sui controller node&#45;&gt;Spegnimento cld&#45;storage&#45;01</title>
<path fill="none" stroke="black" d="M2119.57,-1871.98C2132.83,-1863.18 2146.74,-1851.09 2154.04,-1836 2163.38,-1816.71 2161.43,-1792.22 2157.69,-1773.82"/>
<polygon fill="black" stroke="black" points="2161.08,-1772.98 2155.41,-1764.03 2154.27,-1774.57 2161.08,-1772.98"/>
</g>
<!-- Spegnimento cld&#45;np* (tranne cld&#45;np&#45;gpu&#45;xx) -->
<g id="node7" class="node">
<title>Spegnimento cld&#45;np* (tranne cld&#45;np&#45;gpu&#45;xx)</title>
<ellipse fill="none" stroke="black" cx="460.04" cy="-1386" rx="211.76" ry="18"/>
<text text-anchor="middle" x="460.04" y="-1382.3" font-family="Times-Roman" font-size="14.00">Spegnimento cld&#45;np* (tranne cld&#45;np&#45;gpu&#45;xx)</text>
</g>
<!-- Spegnimento OpenStack sui controller node&#45;&gt;Spegnimento cld&#45;np* (tranne cld&#45;np&#45;gpu&#45;xx) -->
<g id="edge7" class="edge">
<title>Spegnimento OpenStack sui controller node&#45;&gt;Spegnimento cld&#45;np* (tranne cld&#45;np&#45;gpu&#45;xx)</title>
<path fill="none" stroke="black" d="M1898.22,-1882.06C1471.98,-1865.13 472.04,-1817.87 472.04,-1747 472.04,-1747 472.04,-1747 472.04,-1529 472.04,-1488.85 467.22,-1442.55 463.69,-1414.02"/>
<polygon fill="black" stroke="black" points="467.15,-1413.49 462.41,-1404.01 460.2,-1414.37 467.15,-1413.49"/>
</g>
<!-- Spegnimento cld&#45;unipd* -->
<g id="node8" class="node">
<title>Spegnimento cld&#45;unipd*</title>
<ellipse fill="none" stroke="black" cx="2318.04" cy="-1602" rx="120.48" ry="18"/>
<text text-anchor="middle" x="2318.04" y="-1598.3" font-family="Times-Roman" font-size="14.00">Spegnimento cld&#45;unipd*</text>
</g>
<!-- Spegnimento OpenStack sui controller node&#45;&gt;Spegnimento cld&#45;unipd* -->
<g id="edge8" class="edge">
<title>Spegnimento OpenStack sui controller node&#45;&gt;Spegnimento cld&#45;unipd*</title>
<path fill="none" stroke="black" d="M2141.2,-1872.59C2190.97,-1854.48 2262.4,-1820.19 2299.04,-1764 2325.53,-1723.37 2324.97,-1664.47 2321.77,-1630.32"/>
<polygon fill="black" stroke="black" points="2325.22,-1629.72 2320.67,-1620.16 2318.26,-1630.48 2325.22,-1629.72"/>
</g>
<!-- Spegnimento cld&#45;ctrl* -->
<g id="node9" class="node">
<title>Spegnimento cld&#45;ctrl*</title>
<ellipse fill="none" stroke="black" cx="2458.04" cy="-1746" rx="109.38" ry="18"/>
<text text-anchor="middle" x="2458.04" y="-1742.3" font-family="Times-Roman" font-size="14.00">Spegnimento cld&#45;ctrl*</text>
</g>
<!-- Spegnimento OpenStack sui controller node&#45;&gt;Spegnimento cld&#45;ctrl* -->
<g id="edge9" class="edge">
<title>Spegnimento OpenStack sui controller node&#45;&gt;Spegnimento cld&#45;ctrl*</title>
<path fill="none" stroke="black" d="M2206.17,-1875.13C2247.47,-1867.27 2293.14,-1855.03 2332.04,-1836 2354.43,-1825.05 2354.94,-1814.74 2375.04,-1800 2389.77,-1789.2 2406.66,-1778.18 2421.34,-1769.01"/>
<polygon fill="black" stroke="black" points="2423.49,-1771.8 2430.16,-1763.56 2419.81,-1765.84 2423.49,-1771.8"/>
</g>
<!-- Spegnimento cld&#45;dfa*(tranne cld&#45;dfa&#45;gpu&#45;xx) -->
<g id="node10" class="node">
<title>Spegnimento cld&#45;dfa*(tranne cld&#45;dfa&#45;gpu&#45;xx)</title>
<ellipse fill="none" stroke="black" cx="2599.04" cy="-1818" rx="215.26" ry="18"/>
<text text-anchor="middle" x="2599.04" y="-1814.3" font-family="Times-Roman" font-size="14.00">Spegnimento cld&#45;dfa*(tranne cld&#45;dfa&#45;gpu&#45;xx)</text>
</g>
<!-- Spegnimento OpenStack sui controller node&#45;&gt;Spegnimento cld&#45;dfa*(tranne cld&#45;dfa&#45;gpu&#45;xx) -->
<g id="edge10" class="edge">
<title>Spegnimento OpenStack sui controller node&#45;&gt;Spegnimento cld&#45;dfa*(tranne cld&#45;dfa&#45;gpu&#45;xx)</title>
<path fill="none" stroke="black" d="M2193.44,-1874.45C2277.56,-1862.95 2394.9,-1846.91 2481.73,-1835.04"/>
<polygon fill="black" stroke="black" points="2482.47,-1838.47 2491.9,-1833.65 2481.52,-1831.54 2482.47,-1838.47"/>
</g>
<!-- Spegnimento rsyslog e umount del volume ceph da cld&#45;log -->
<g id="node11" class="node">
<title>Spegnimento rsyslog e umount del volume ceph da cld&#45;log</title>
<ellipse fill="none" stroke="black" cx="1089.04" cy="-1674" rx="277.55" ry="18"/>
<text text-anchor="middle" x="1089.04" y="-1670.3" font-family="Times-Roman" font-size="14.00">Spegnimento rsyslog e umount del volume ceph da cld&#45;log</text>
</g>
<!-- Spegnimento OpenStack sui controller node&#45;&gt;Spegnimento rsyslog e umount del volume ceph da cld&#45;log -->
<g id="edge11" class="edge">
<title>Spegnimento OpenStack sui controller node&#45;&gt;Spegnimento rsyslog e umount del volume ceph da cld&#45;log</title>
<path fill="none" stroke="black" d="M1888.4,-1884.17C1614.9,-1876.63 1152.64,-1860.38 1124.04,-1836 1085.5,-1803.15 1083.53,-1738.75 1085.97,-1702.13"/>
<polygon fill="black" stroke="black" points="1089.46,-1702.42 1086.8,-1692.16 1082.49,-1701.84 1089.46,-1702.42"/>
</g>
<!-- Spegnimento cluster percona -->
<g id="node19" class="node">
<title>Spegnimento cluster percona</title>
<ellipse fill="none" stroke="black" cx="2001.04" cy="-1818" rx="143.77" ry="18"/>
<text text-anchor="middle" x="2001.04" y="-1814.3" font-family="Times-Roman" font-size="14.00">Spegnimento cluster percona</text>
</g>
<!-- Spegnimento OpenStack sui controller node&#45;&gt;Spegnimento cluster percona -->
<g id="edge19" class="edge">
<title>Spegnimento OpenStack sui controller node&#45;&gt;Spegnimento cluster percona</title>
<path fill="none" stroke="black" d="M2066.22,-1872.05C2055.32,-1863.18 2041.79,-1852.17 2029.89,-1842.48"/>
<polygon fill="black" stroke="black" points="2031.93,-1839.63 2021.96,-1836.03 2027.51,-1845.06 2031.93,-1839.63"/>
</g>
<!-- Salvataggio /var/lib/nova/instances di cld&#45;np&#45;xx e cld&#45;dfa&#45;gpu&#45;xx su cld&#45;elx* -->
<g id="node22" class="node">
<title>Salvataggio /var/lib/nova/instances di cld&#45;np&#45;xx e cld&#45;dfa&#45;gpu&#45;xx su cld&#45;elx*</title>
<ellipse fill="none" stroke="black" cx="1486.04" cy="-1818" rx="352.84" ry="18"/>
<text text-anchor="middle" x="1486.04" y="-1814.3" font-family="Times-Roman" font-size="14.00">Salvataggio /var/lib/nova/instances di cld&#45;np&#45;xx e cld&#45;dfa&#45;gpu&#45;xx su cld&#45;elx*</text>
</g>
<!-- Spegnimento OpenStack sui controller node&#45;&gt;Salvataggio /var/lib/nova/instances di cld&#45;np&#45;xx e cld&#45;dfa&#45;gpu&#45;xx su cld&#45;elx* -->
<g id="edge25" class="edge">
<title>Spegnimento OpenStack sui controller node&#45;&gt;Salvataggio /var/lib/nova/instances di cld&#45;np&#45;xx e cld&#45;dfa&#45;gpu&#45;xx su cld&#45;elx*</title>
<path fill="none" stroke="black" d="M1967.94,-1875.13C1871.07,-1863.85 1734.01,-1847.88 1630.81,-1835.86"/>
<polygon fill="black" stroke="black" points="1630.96,-1832.36 1620.62,-1834.67 1630.15,-1839.31 1630.96,-1832.36"/>
</g>
<!-- Spegnimento di cld&#45;nat -->
<g id="node28" class="node">
<title>Spegnimento di cld&#45;nat</title>
<ellipse fill="none" stroke="black" cx="1953.04" cy="-1314" rx="116.18" ry="18"/>
<text text-anchor="middle" x="1953.04" y="-1310.3" font-family="Times-Roman" font-size="14.00">Spegnimento di cld&#45;nat</text>
</g>
<!-- Spegnimento cld&#45;storage&#45;01&#45;&gt;Spegnimento di cld&#45;nat -->
<g id="edge35" class="edge">
<title>Spegnimento cld&#45;storage&#45;01&#45;&gt;Spegnimento di cld&#45;nat</title>
<path fill="none" stroke="black" d="M2154.09,-1727.62C2159.93,-1700.97 2170.04,-1648.31 2170.04,-1603 2170.04,-1603 2170.04,-1603 2170.04,-1457 2170.04,-1414.81 2167.96,-1396.7 2137.04,-1368 2115.04,-1347.58 2085.67,-1334.97 2056.86,-1327.21"/>
<polygon fill="black" stroke="black" points="2057.68,-1323.8 2047.13,-1324.75 2055.97,-1330.59 2057.68,-1323.8"/>
</g>
<!-- Spegnimento blade1 -->
<g id="node18" class="node">
<title>Spegnimento blade1</title>
<ellipse fill="none" stroke="black" cx="460.04" cy="-1314" rx="104.78" ry="18"/>
<text text-anchor="middle" x="460.04" y="-1310.3" font-family="Times-Roman" font-size="14.00">Spegnimento blade1</text>
</g>
<!-- Spegnimento cld&#45;np* (tranne cld&#45;np&#45;gpu&#45;xx)&#45;&gt;Spegnimento blade1 -->
<g id="edge22" class="edge">
<title>Spegnimento cld&#45;np* (tranne cld&#45;np&#45;gpu&#45;xx)&#45;&gt;Spegnimento blade1</title>
<path fill="none" stroke="black" d="M460.04,-1367.7C460.04,-1359.98 460.04,-1350.71 460.04,-1342.11"/>
<polygon fill="black" stroke="black" points="463.54,-1342.1 460.04,-1332.1 456.54,-1342.1 463.54,-1342.1"/>
</g>
<!-- Spegnimento cld&#45;np* (tranne cld&#45;np&#45;gpu&#45;xx)&#45;&gt;Spegnimento di cld&#45;nat -->
<g id="edge34" class="edge">
<title>Spegnimento cld&#45;np* (tranne cld&#45;np&#45;gpu&#45;xx)&#45;&gt;Spegnimento di cld&#45;nat</title>
<path fill="none" stroke="black" d="M606.8,-1372.98C631.57,-1371.16 657.03,-1369.42 681.04,-1368 1102.05,-1343.04 1602.15,-1325.84 1829.52,-1318.7"/>
<polygon fill="black" stroke="black" points="1829.93,-1322.19 1839.81,-1318.38 1829.71,-1315.2 1829.93,-1322.19"/>
</g>
<!-- Spegnimento cld&#45;unipd*&#45;&gt;Spegnimento di cld&#45;nat -->
<g id="edge36" class="edge">
<title>Spegnimento cld&#45;unipd*&#45;&gt;Spegnimento di cld&#45;nat</title>
<path fill="none" stroke="black" d="M2313.36,-1583.72C2300.6,-1540.09 2260.93,-1424.91 2184.04,-1368 2151.19,-1343.68 2109.05,-1330.26 2069.78,-1322.93"/>
<polygon fill="black" stroke="black" points="2070.32,-1319.47 2059.87,-1321.2 2069.12,-1326.37 2070.32,-1319.47"/>
</g>
<!-- Spegnimento cld&#45;ctrl*&#45;&gt;Spegnimento di cld&#45;nat -->
<g id="edge41" class="edge">
<title>Spegnimento cld&#45;ctrl*&#45;&gt;Spegnimento di cld&#45;nat</title>
<path fill="none" stroke="black" d="M2459.62,-1727.97C2461.95,-1701.33 2466.04,-1648.19 2466.04,-1603 2466.04,-1603 2466.04,-1603 2466.04,-1457 2466.04,-1374.57 2216.91,-1338.07 2065.87,-1323.51"/>
<polygon fill="black" stroke="black" points="2065.91,-1320 2055.62,-1322.54 2065.25,-1326.97 2065.91,-1320"/>
</g>
<!-- Spegnimento cld&#45;dfa*(tranne cld&#45;dfa&#45;gpu&#45;xx)&#45;&gt;Spegnimento di cld&#45;nat -->
<g id="edge42" class="edge">
<title>Spegnimento cld&#45;dfa*(tranne cld&#45;dfa&#45;gpu&#45;xx)&#45;&gt;Spegnimento di cld&#45;nat</title>
<path fill="none" stroke="black" d="M2598.64,-1799.95C2598.06,-1773.29 2597.04,-1720.12 2597.04,-1675 2597.04,-1675 2597.04,-1675 2597.04,-1457 2597.04,-1351.81 2265.27,-1324.47 2077.99,-1317.41"/>
<polygon fill="black" stroke="black" points="2077.92,-1313.91 2067.8,-1317.04 2077.67,-1320.9 2077.92,-1313.91"/>
</g>
<!-- Aggiornamento a AlmaLinux9 di cld&#45;log -->
<g id="node12" class="node">
<title>Aggiornamento a AlmaLinux9 di cld&#45;log</title>
<ellipse fill="none" stroke="black" cx="726.04" cy="-1458" rx="188.47" ry="18"/>
<text text-anchor="middle" x="726.04" y="-1454.3" font-family="Times-Roman" font-size="14.00">Aggiornamento a AlmaLinux9 di cld&#45;log</text>
</g>
<!-- Spegnimento rsyslog e umount del volume ceph da cld&#45;log&#45;&gt;Aggiornamento a AlmaLinux9 di cld&#45;log -->
<g id="edge12" class="edge">
<title>Spegnimento rsyslog e umount del volume ceph da cld&#45;log&#45;&gt;Aggiornamento a AlmaLinux9 di cld&#45;log</title>
<path fill="none" stroke="black" d="M1041.36,-1656.2C1016.53,-1646.76 986.02,-1634.06 960.04,-1620 882.19,-1577.85 798.45,-1515.64 755.36,-1482.23"/>
<polygon fill="black" stroke="black" points="757.34,-1479.34 747.3,-1475.95 753.04,-1484.86 757.34,-1479.34"/>
</g>
<!-- Spegnimento ceph&#45;*rgw -->
<g id="node14" class="node">
<title>Spegnimento ceph&#45;*rgw</title>
<ellipse fill="none" stroke="black" cx="1089.04" cy="-1602" rx="120.48" ry="18"/>
<text text-anchor="middle" x="1089.04" y="-1598.3" font-family="Times-Roman" font-size="14.00">Spegnimento ceph&#45;*rgw</text>
</g>
<!-- Spegnimento rsyslog e umount del volume ceph da cld&#45;log&#45;&gt;Spegnimento ceph&#45;*rgw -->
<g id="edge14" class="edge">
<title>Spegnimento rsyslog e umount del volume ceph da cld&#45;log&#45;&gt;Spegnimento ceph&#45;*rgw</title>
<path fill="none" stroke="black" d="M1089.04,-1655.7C1089.04,-1647.98 1089.04,-1638.71 1089.04,-1630.11"/>
<polygon fill="black" stroke="black" points="1092.54,-1630.1 1089.04,-1620.1 1085.54,-1630.1 1092.54,-1630.1"/>
</g>
<!-- Spegnimento di cld&#45;log -->
<g id="node13" class="node">
<title>Spegnimento di cld&#45;log</title>
<ellipse fill="none" stroke="black" cx="115.04" cy="-1386" rx="115.08" ry="18"/>
<text text-anchor="middle" x="115.04" y="-1382.3" font-family="Times-Roman" font-size="14.00">Spegnimento di cld&#45;log</text>
</g>
<!-- Aggiornamento a AlmaLinux9 di cld&#45;log&#45;&gt;Spegnimento di cld&#45;log -->
<g id="edge13" class="edge">
<title>Aggiornamento a AlmaLinux9 di cld&#45;log&#45;&gt;Spegnimento di cld&#45;log</title>
<path fill="none" stroke="black" d="M601.83,-1444.45C503.35,-1434.26 362.28,-1419.15 239.04,-1404 228.83,-1402.74 218.15,-1401.37 207.52,-1399.97"/>
<polygon fill="black" stroke="black" points="207.75,-1396.47 197.37,-1398.61 206.82,-1403.41 207.75,-1396.47"/>
</g>
<!-- Spegnimento di cld&#45;config -->
<g id="node27" class="node">
<title>Spegnimento di cld&#45;config</title>
<ellipse fill="none" stroke="black" cx="1084.04" cy="-1386" rx="129.18" ry="18"/>
<text text-anchor="middle" x="1084.04" y="-1382.3" font-family="Times-Roman" font-size="14.00">Spegnimento di cld&#45;config</text>
</g>
<!-- Aggiornamento a AlmaLinux9 di cld&#45;log&#45;&gt;Spegnimento di cld&#45;config -->
<g id="edge31" class="edge">
<title>Aggiornamento a AlmaLinux9 di cld&#45;log&#45;&gt;Spegnimento di cld&#45;config</title>
<path fill="none" stroke="black" d="M804.6,-1441.64C863.17,-1430.19 942.94,-1414.59 1002.27,-1402.99"/>
<polygon fill="black" stroke="black" points="1003.21,-1406.37 1012.35,-1401.02 1001.86,-1399.5 1003.21,-1406.37"/>
</g>
<!-- Spegnimento di cld&#45;log&#45;&gt;Spegnimento blade1 -->
<g id="edge21" class="edge">
<title>Spegnimento di cld&#45;log&#45;&gt;Spegnimento blade1</title>
<path fill="none" stroke="black" d="M182.38,-1371.34C240.71,-1359.5 324.97,-1342.41 385.35,-1330.15"/>
<polygon fill="black" stroke="black" points="386.1,-1333.57 395.21,-1328.15 384.71,-1326.71 386.1,-1333.57"/>
</g>
<!-- Stop servizi ceph -->
<g id="node15" class="node">
<title>Stop servizi ceph</title>
<ellipse fill="none" stroke="black" cx="1078.04" cy="-1530" rx="88.28" ry="18"/>
<text text-anchor="middle" x="1078.04" y="-1526.3" font-family="Times-Roman" font-size="14.00">Stop servizi ceph</text>
</g>
<!-- Spegnimento ceph&#45;*rgw&#45;&gt;Stop servizi ceph -->
<g id="edge15" class="edge">
<title>Spegnimento ceph&#45;*rgw&#45;&gt;Stop servizi ceph</title>
<path fill="none" stroke="black" d="M1086.32,-1583.7C1085.11,-1575.98 1083.65,-1566.71 1082.3,-1558.11"/>
<polygon fill="black" stroke="black" points="1085.74,-1557.44 1080.73,-1548.1 1078.82,-1558.53 1085.74,-1557.44"/>
</g>
<!-- Spegnimento ceph&#45;osd&#45;* -->
<g id="node16" class="node">
<title>Spegnimento ceph&#45;osd&#45;*</title>
<ellipse fill="none" stroke="black" cx="1055.04" cy="-1458" rx="122.68" ry="18"/>
<text text-anchor="middle" x="1055.04" y="-1454.3" font-family="Times-Roman" font-size="14.00">Spegnimento ceph&#45;osd&#45;*</text>
</g>
<!-- Stop servizi ceph&#45;&gt;Spegnimento ceph&#45;osd&#45;* -->
<g id="edge16" class="edge">
<title>Stop servizi ceph&#45;&gt;Spegnimento ceph&#45;osd&#45;*</title>
<path fill="none" stroke="black" d="M1072.35,-1511.7C1069.79,-1503.9 1066.71,-1494.51 1063.86,-1485.83"/>
<polygon fill="black" stroke="black" points="1067.11,-1484.51 1060.66,-1476.1 1060.46,-1486.7 1067.11,-1484.51"/>
</g>
<!-- Spegnimento ceph&#45;mon* -->
<g id="node17" class="node">
<title>Spegnimento ceph&#45;mon*</title>
<ellipse fill="none" stroke="black" cx="813.04" cy="-1386" rx="123.48" ry="18"/>
<text text-anchor="middle" x="813.04" y="-1382.3" font-family="Times-Roman" font-size="14.00">Spegnimento ceph&#45;mon*</text>
</g>
<!-- Spegnimento ceph&#45;osd&#45;*&#45;&gt;Spegnimento ceph&#45;mon* -->
<g id="edge17" class="edge">
<title>Spegnimento ceph&#45;osd&#45;*&#45;&gt;Spegnimento ceph&#45;mon*</title>
<path fill="none" stroke="black" d="M1002.23,-1441.72C965.05,-1430.97 915.12,-1416.53 875.88,-1405.18"/>
<polygon fill="black" stroke="black" points="876.73,-1401.78 866.15,-1402.36 874.79,-1408.5 876.73,-1401.78"/>
</g>
<!-- Spegnimento ceph&#45;mon*&#45;&gt;Spegnimento blade1 -->
<g id="edge18" class="edge">
<title>Spegnimento ceph&#45;mon*&#45;&gt;Spegnimento blade1</title>
<path fill="none" stroke="black" d="M742.88,-1371.09C683.07,-1359.23 597.3,-1342.22 535.91,-1330.05"/>
<polygon fill="black" stroke="black" points="536.38,-1326.57 525.89,-1328.06 535.02,-1333.44 536.38,-1326.57"/>
</g>
<!-- Spegnimento ceph&#45;mon*&#45;&gt;Spegnimento di cld&#45;nat -->
<g id="edge37" class="edge">
<title>Spegnimento ceph&#45;mon*&#45;&gt;Spegnimento di cld&#45;nat</title>
<path fill="none" stroke="black" d="M899.15,-1373.04C914.73,-1371.15 930.85,-1369.37 946.04,-1368 1263.8,-1339.37 1639.46,-1324.64 1829.56,-1318.53"/>
<polygon fill="black" stroke="black" points="1829.7,-1322.03 1839.58,-1318.21 1829.47,-1315.03 1829.7,-1322.03"/>
</g>
<!-- Spegnimento altre VM sul cluster cld&#45;px -->
<g id="node20" class="node">
<title>Spegnimento altre VM sul cluster cld&#45;px</title>
<ellipse fill="none" stroke="black" cx="1801.04" cy="-1746" rx="191.17" ry="18"/>
<text text-anchor="middle" x="1801.04" y="-1742.3" font-family="Times-Roman" font-size="14.00">Spegnimento altre VM sul cluster cld&#45;px</text>
</g>
<!-- Spegnimento cluster percona&#45;&gt;Spegnimento altre VM sul cluster cld&#45;px -->
<g id="edge20" class="edge">
<title>Spegnimento cluster percona&#45;&gt;Spegnimento altre VM sul cluster cld&#45;px</title>
<path fill="none" stroke="black" d="M1955.16,-1800.94C1926.23,-1790.82 1888.65,-1777.66 1857.84,-1766.88"/>
<polygon fill="black" stroke="black" points="1858.69,-1763.47 1848.1,-1763.47 1856.38,-1770.08 1858.69,-1763.47"/>
</g>
<!-- Spegnimento cld&#45;px* -->
<g id="node21" class="node">
<title>Spegnimento cld&#45;px*</title>
<ellipse fill="none" stroke="black" cx="1801.04" cy="-1674" rx="105.88" ry="18"/>
<text text-anchor="middle" x="1801.04" y="-1670.3" font-family="Times-Roman" font-size="14.00">Spegnimento cld&#45;px*</text>
</g>
<!-- Spegnimento altre VM sul cluster cld&#45;px&#45;&gt;Spegnimento cld&#45;px* -->
<g id="edge23" class="edge">
<title>Spegnimento altre VM sul cluster cld&#45;px&#45;&gt;Spegnimento cld&#45;px*</title>
<path fill="none" stroke="black" d="M1801.04,-1727.7C1801.04,-1719.98 1801.04,-1710.71 1801.04,-1702.11"/>
<polygon fill="black" stroke="black" points="1804.54,-1702.1 1801.04,-1692.1 1797.54,-1702.1 1804.54,-1702.1"/>
</g>
<!-- Spegnimento cld&#45;px*&#45;&gt;Spegnimento ceph&#45;*rgw -->
<g id="edge24" class="edge">
<title>Spegnimento cld&#45;px*&#45;&gt;Spegnimento ceph&#45;*rgw</title>
<path fill="none" stroke="black" d="M1711.95,-1664.24C1581.17,-1651.38 1337.55,-1627.43 1196.86,-1613.6"/>
<polygon fill="black" stroke="black" points="1196.79,-1610.08 1186.49,-1612.58 1196.1,-1617.04 1196.79,-1610.08"/>
</g>
<!-- Spegnimento cld&#45;px*&#45;&gt;Spegnimento di cld&#45;nat -->
<g id="edge33" class="edge">
<title>Spegnimento cld&#45;px*&#45;&gt;Spegnimento di cld&#45;nat</title>
<path fill="none" stroke="black" d="M1904.86,-1670.36C2001.93,-1661.69 2132.04,-1631.36 2132.04,-1531 2132.04,-1531 2132.04,-1531 2132.04,-1457 2132.04,-1416.55 2140.03,-1398.12 2113.04,-1368 2096.15,-1349.15 2072.4,-1336.98 2048.35,-1329.14"/>
<polygon fill="black" stroke="black" points="2049.37,-1325.79 2038.78,-1326.24 2047.34,-1332.49 2049.37,-1325.79"/>
</g>
<!-- Aggiornamento di cld&#45;np&#45;xx e cld&#45;dfa&#45;gpu&#45;xx e ripristino di /var/lib/nova/instances -->
<g id="node23" class="node">
<title>Aggiornamento di cld&#45;np&#45;xx e cld&#45;dfa&#45;gpu&#45;xx e ripristino di /var/lib/nova/instances</title>
<ellipse fill="none" stroke="black" cx="1577.04" cy="-1458" rx="381.53" ry="18"/>
<text text-anchor="middle" x="1577.04" y="-1454.3" font-family="Times-Roman" font-size="14.00">Aggiornamento di cld&#45;np&#45;xx e cld&#45;dfa&#45;gpu&#45;xx e ripristino di /var/lib/nova/instances</text>
</g>
<!-- Salvataggio /var/lib/nova/instances di cld&#45;np&#45;xx e cld&#45;dfa&#45;gpu&#45;xx su cld&#45;elx*&#45;&gt;Aggiornamento di cld&#45;np&#45;xx e cld&#45;dfa&#45;gpu&#45;xx e ripristino di /var/lib/nova/instances -->
<g id="edge26" class="edge">
<title>Salvataggio /var/lib/nova/instances di cld&#45;np&#45;xx e cld&#45;dfa&#45;gpu&#45;xx su cld&#45;elx*&#45;&gt;Aggiornamento di cld&#45;np&#45;xx e cld&#45;dfa&#45;gpu&#45;xx e ripristino di /var/lib/nova/instances</title>
<path fill="none" stroke="black" d="M1495.99,-1799.71C1510.04,-1773.58 1534.04,-1722.1 1534.04,-1675 1534.04,-1675 1534.04,-1675 1534.04,-1601 1534.04,-1559.29 1551.24,-1513.54 1563.88,-1485.54"/>
<polygon fill="black" stroke="black" points="1567.09,-1486.96 1568.13,-1476.42 1560.74,-1484.01 1567.09,-1486.96"/>
</g>
<!-- Spegnimento di cld&#45;elx* -->
<g id="node24" class="node">
<title>Spegnimento di cld&#45;elx*</title>
<ellipse fill="none" stroke="black" cx="1350.04" cy="-1386" rx="118.88" ry="18"/>
<text text-anchor="middle" x="1350.04" y="-1382.3" font-family="Times-Roman" font-size="14.00">Spegnimento di cld&#45;elx*</text>
</g>
<!-- Aggiornamento di cld&#45;np&#45;xx e cld&#45;dfa&#45;gpu&#45;xx e ripristino di /var/lib/nova/instances&#45;&gt;Spegnimento di cld&#45;elx* -->
<g id="edge27" class="edge">
<title>Aggiornamento di cld&#45;np&#45;xx e cld&#45;dfa&#45;gpu&#45;xx e ripristino di /var/lib/nova/instances&#45;&gt;Spegnimento di cld&#45;elx*</title>
<path fill="none" stroke="black" d="M1522.38,-1440.14C1488.32,-1429.64 1444.5,-1416.13 1409.57,-1405.36"/>
<polygon fill="black" stroke="black" points="1410.55,-1402 1399.96,-1402.39 1408.49,-1408.69 1410.55,-1402"/>
</g>
<!-- Spegnimento di cld&#45;np&#45;gpu&#45;xx -->
<g id="node25" class="node">
<title>Spegnimento di cld&#45;np&#45;gpu&#45;xx</title>
<ellipse fill="none" stroke="black" cx="1635.04" cy="-1386" rx="148.37" ry="18"/>
<text text-anchor="middle" x="1635.04" y="-1382.3" font-family="Times-Roman" font-size="14.00">Spegnimento di cld&#45;np&#45;gpu&#45;xx</text>
</g>
<!-- Aggiornamento di cld&#45;np&#45;xx e cld&#45;dfa&#45;gpu&#45;xx e ripristino di /var/lib/nova/instances&#45;&gt;Spegnimento di cld&#45;np&#45;gpu&#45;xx -->
<g id="edge28" class="edge">
<title>Aggiornamento di cld&#45;np&#45;xx e cld&#45;dfa&#45;gpu&#45;xx e ripristino di /var/lib/nova/instances&#45;&gt;Spegnimento di cld&#45;np&#45;gpu&#45;xx</title>
<path fill="none" stroke="black" d="M1591.38,-1439.7C1598.33,-1431.3 1606.81,-1421.07 1614.44,-1411.86"/>
<polygon fill="black" stroke="black" points="1617.18,-1414.04 1620.87,-1404.1 1611.79,-1409.57 1617.18,-1414.04"/>
</g>
<!-- Spegnimento di cld&#45;dfa&#45;gpu&#45;xx -->
<g id="node26" class="node">
<title>Spegnimento di cld&#45;dfa&#45;gpu&#45;xx</title>
<ellipse fill="none" stroke="black" cx="1953.04" cy="-1386" rx="151.37" ry="18"/>
<text text-anchor="middle" x="1953.04" y="-1382.3" font-family="Times-Roman" font-size="14.00">Spegnimento di cld&#45;dfa&#45;gpu&#45;xx</text>
</g>
<!-- Aggiornamento di cld&#45;np&#45;xx e cld&#45;dfa&#45;gpu&#45;xx e ripristino di /var/lib/nova/instances&#45;&gt;Spegnimento di cld&#45;dfa&#45;gpu&#45;xx -->
<g id="edge29" class="edge">
<title>Aggiornamento di cld&#45;np&#45;xx e cld&#45;dfa&#45;gpu&#45;xx e ripristino di /var/lib/nova/instances&#45;&gt;Spegnimento di cld&#45;dfa&#45;gpu&#45;xx</title>
<path fill="none" stroke="black" d="M1666.15,-1440.41C1726.19,-1429.23 1805.06,-1414.55 1864.9,-1403.41"/>
<polygon fill="black" stroke="black" points="1865.9,-1406.78 1875.09,-1401.51 1864.62,-1399.9 1865.9,-1406.78"/>
</g>
<!-- Aggiornamento di cld&#45;np&#45;xx e cld&#45;dfa&#45;gpu&#45;xx e ripristino di /var/lib/nova/instances&#45;&gt;Spegnimento di cld&#45;config -->
<g id="edge30" class="edge">
<title>Aggiornamento di cld&#45;np&#45;xx e cld&#45;dfa&#45;gpu&#45;xx e ripristino di /var/lib/nova/instances&#45;&gt;Spegnimento di cld&#45;config</title>
<path fill="none" stroke="black" d="M1463.01,-1440.81C1377.64,-1428.69 1262.12,-1412.28 1181.14,-1400.79"/>
<polygon fill="black" stroke="black" points="1181.33,-1397.28 1170.94,-1399.34 1180.35,-1404.21 1181.33,-1397.28"/>
</g>
<!-- Spegnimento di cld&#45;elx*&#45;&gt;Spegnimento di cld&#45;nat -->
<g id="edge38" class="edge">
<title>Spegnimento di cld&#45;elx*&#45;&gt;Spegnimento di cld&#45;nat</title>
<path fill="none" stroke="black" d="M1435.38,-1373.41C1449.62,-1371.55 1464.24,-1369.69 1478.04,-1368 1605.92,-1352.38 1753.39,-1336.21 1849.66,-1325.9"/>
<polygon fill="black" stroke="black" points="1850.12,-1329.38 1859.69,-1324.83 1849.37,-1322.42 1850.12,-1329.38"/>
</g>
<!-- Spegnimento di cld&#45;np&#45;gpu&#45;xx&#45;&gt;Spegnimento di cld&#45;nat -->
<g id="edge40" class="edge">
<title>Spegnimento di cld&#45;np&#45;gpu&#45;xx&#45;&gt;Spegnimento di cld&#45;nat</title>
<path fill="none" stroke="black" d="M1703.26,-1369.98C1754.95,-1358.6 1825.89,-1342.99 1878.97,-1331.31"/>
<polygon fill="black" stroke="black" points="1879.98,-1334.67 1889,-1329.1 1878.48,-1327.83 1879.98,-1334.67"/>
</g>
<!-- Spegnimento di cld&#45;dfa&#45;gpu&#45;xx&#45;&gt;Spegnimento di cld&#45;nat -->
<g id="edge39" class="edge">
<title>Spegnimento di cld&#45;dfa&#45;gpu&#45;xx&#45;&gt;Spegnimento di cld&#45;nat</title>
<path fill="none" stroke="black" d="M1953.04,-1367.7C1953.04,-1359.98 1953.04,-1350.71 1953.04,-1342.11"/>
<polygon fill="black" stroke="black" points="1956.54,-1342.1 1953.04,-1332.1 1949.54,-1342.1 1956.54,-1342.1"/>
</g>
<!-- Spegnimento di cld&#45;config&#45;&gt;Spegnimento di cld&#45;nat -->
<g id="edge32" class="edge">
<title>Spegnimento di cld&#45;config&#45;&gt;Spegnimento di cld&#45;nat</title>
<path fill="none" stroke="black" d="M1174.9,-1373.15C1190.61,-1371.29 1206.78,-1369.49 1222.04,-1368 1438.15,-1346.87 1690.98,-1330.36 1835.53,-1321.7"/>
<polygon fill="black" stroke="black" points="1835.98,-1325.18 1845.75,-1321.09 1835.56,-1318.19 1835.98,-1325.18"/>
</g>
<!-- Sostituzione quadro elettrico CDZ -->
<g id="node29" class="node">
<title>Sostituzione quadro elettrico CDZ</title>
<ellipse fill="none" stroke="black" cx="1953.04" cy="-1242" rx="162.47" ry="18"/>
<text text-anchor="middle" x="1953.04" y="-1238.3" font-family="Times-Roman" font-size="14.00">Sostituzione quadro elettrico CDZ</text>
</g>
<!-- Spegnimento di cld&#45;nat&#45;&gt;Sostituzione quadro elettrico CDZ -->
<g id="edge43" class="edge">
<title>Spegnimento di cld&#45;nat&#45;&gt;Sostituzione quadro elettrico CDZ</title>
<path fill="none" stroke="black" d="M1953.04,-1295.7C1953.04,-1287.98 1953.04,-1278.71 1953.04,-1270.11"/>
<polygon fill="black" stroke="black" points="1956.54,-1270.1 1953.04,-1260.1 1949.54,-1270.1 1956.54,-1270.1"/>
</g>
<!-- Accensione cld&#45;nat -->
<g id="node30" class="node">
<title>Accensione cld&#45;nat</title>
<ellipse fill="none" stroke="black" cx="1953.04" cy="-1170" rx="95.58" ry="18"/>
<text text-anchor="middle" x="1953.04" y="-1166.3" font-family="Times-Roman" font-size="14.00">Accensione cld&#45;nat</text>
</g>
<!-- Sostituzione quadro elettrico CDZ&#45;&gt;Accensione cld&#45;nat -->
<g id="edge44" class="edge">
<title>Sostituzione quadro elettrico CDZ&#45;&gt;Accensione cld&#45;nat</title>
<path fill="none" stroke="black" d="M1953.04,-1223.7C1953.04,-1215.98 1953.04,-1206.71 1953.04,-1198.11"/>
<polygon fill="black" stroke="black" points="1956.54,-1198.1 1953.04,-1188.1 1949.54,-1198.1 1956.54,-1198.1"/>
</g>
<!-- Accesione blade1 -->
<g id="node31" class="node">
<title>Accesione blade1</title>
<ellipse fill="none" stroke="black" cx="1895.04" cy="-1098" rx="89.08" ry="18"/>
<text text-anchor="middle" x="1895.04" y="-1094.3" font-family="Times-Roman" font-size="14.00">Accesione blade1</text>
</g>
<!-- Accensione cld&#45;nat&#45;&gt;Accesione blade1 -->
<g id="edge45" class="edge">
<title>Accensione cld&#45;nat&#45;&gt;Accesione blade1</title>
<path fill="none" stroke="black" d="M1939,-1152.05C1931.95,-1143.54 1923.27,-1133.07 1915.49,-1123.68"/>
<polygon fill="black" stroke="black" points="1918.03,-1121.26 1908.95,-1115.79 1912.64,-1125.72 1918.03,-1121.26"/>
</g>
<!-- Accensione ceph&#45;mon&#45;01 -->
<g id="node33" class="node">
<title>Accensione ceph&#45;mon&#45;01</title>
<ellipse fill="none" stroke="black" cx="2095.04" cy="-1026" rx="124.58" ry="18"/>
<text text-anchor="middle" x="2095.04" y="-1022.3" font-family="Times-Roman" font-size="14.00">Accensione ceph&#45;mon&#45;01</text>
</g>
<!-- Accensione cld&#45;nat&#45;&gt;Accensione ceph&#45;mon&#45;01 -->
<g id="edge47" class="edge">
<title>Accensione cld&#45;nat&#45;&gt;Accensione ceph&#45;mon&#45;01</title>
<path fill="none" stroke="black" d="M1969.89,-1152.15C1994.84,-1127.2 2041.76,-1080.28 2070.52,-1051.52"/>
<polygon fill="black" stroke="black" points="2073.18,-1053.81 2077.77,-1044.27 2068.23,-1048.86 2073.18,-1053.81"/>
</g>
<!-- Accensione ceph&#45;mon&#45;02/03 -->
<g id="node32" class="node">
<title>Accensione ceph&#45;mon&#45;02/03</title>
<ellipse fill="none" stroke="black" cx="1812.04" cy="-1026" rx="139.98" ry="18"/>
<text text-anchor="middle" x="1812.04" y="-1022.3" font-family="Times-Roman" font-size="14.00">Accensione ceph&#45;mon&#45;02/03</text>
</g>
<!-- Accesione blade1&#45;&gt;Accensione ceph&#45;mon&#45;02/03 -->
<g id="edge46" class="edge">
<title>Accesione blade1&#45;&gt;Accensione ceph&#45;mon&#45;02/03</title>
<path fill="none" stroke="black" d="M1875.37,-1080.41C1864.78,-1071.48 1851.53,-1060.3 1839.89,-1050.49"/>
<polygon fill="black" stroke="black" points="1842.05,-1047.73 1832.15,-1043.96 1837.53,-1053.08 1842.05,-1047.73"/>
</g>
<!-- Accensione ceph&#45;osd* -->
<g id="node34" class="node">
<title>Accensione ceph&#45;osd*</title>
<ellipse fill="none" stroke="black" cx="1953.04" cy="-954" rx="110.48" ry="18"/>
<text text-anchor="middle" x="1953.04" y="-950.3" font-family="Times-Roman" font-size="14.00">Accensione ceph&#45;osd*</text>
</g>
<!-- Accensione ceph&#45;mon&#45;02/03&#45;&gt;Accensione ceph&#45;osd* -->
<g id="edge49" class="edge">
<title>Accensione ceph&#45;mon&#45;02/03&#45;&gt;Accensione ceph&#45;osd*</title>
<path fill="none" stroke="black" d="M1845.45,-1008.41C1865.18,-998.62 1890.31,-986.14 1911.32,-975.71"/>
<polygon fill="black" stroke="black" points="1912.95,-978.81 1920.35,-971.23 1909.84,-972.54 1912.95,-978.81"/>
</g>
<!-- Accensione ceph&#45;mon&#45;01&#45;&gt;Accensione ceph&#45;osd* -->
<g id="edge48" class="edge">
<title>Accensione ceph&#45;mon&#45;01&#45;&gt;Accensione ceph&#45;osd*</title>
<path fill="none" stroke="black" d="M2061.75,-1008.59C2041.9,-998.8 2016.5,-986.29 1995.25,-975.81"/>
<polygon fill="black" stroke="black" points="1996.64,-972.59 1986.12,-971.31 1993.55,-978.87 1996.64,-972.59"/>
</g>
<!-- Attivazione cluster ceph -->
<g id="node35" class="node">
<title>Attivazione cluster ceph</title>
<ellipse fill="none" stroke="black" cx="1953.04" cy="-882" rx="118.88" ry="18"/>
<text text-anchor="middle" x="1953.04" y="-878.3" font-family="Times-Roman" font-size="14.00">Attivazione cluster ceph</text>
</g>
<!-- Accensione ceph&#45;osd*&#45;&gt;Attivazione cluster ceph -->
<g id="edge50" class="edge">
<title>Accensione ceph&#45;osd*&#45;&gt;Attivazione cluster ceph</title>
<path fill="none" stroke="black" d="M1953.04,-935.7C1953.04,-927.98 1953.04,-918.71 1953.04,-910.11"/>
<polygon fill="black" stroke="black" points="1956.54,-910.1 1953.04,-900.1 1949.54,-910.1 1956.54,-910.1"/>
</g>
<!-- Accensione cld&#45;px* -->
<g id="node36" class="node">
<title>Accensione cld&#45;px*</title>
<ellipse fill="none" stroke="black" cx="1953.04" cy="-810" rx="96.68" ry="18"/>
<text text-anchor="middle" x="1953.04" y="-806.3" font-family="Times-Roman" font-size="14.00">Accensione cld&#45;px*</text>
</g>
<!-- Attivazione cluster ceph&#45;&gt;Accensione cld&#45;px* -->
<g id="edge51" class="edge">
<title>Attivazione cluster ceph&#45;&gt;Accensione cld&#45;px*</title>
<path fill="none" stroke="black" d="M1953.04,-863.7C1953.04,-855.98 1953.04,-846.71 1953.04,-838.11"/>
<polygon fill="black" stroke="black" points="1956.54,-838.1 1953.04,-828.1 1949.54,-838.1 1956.54,-838.1"/>
</g>
<!-- Accensione cld&#45;log (e mount volume ceph) -->
<g id="node37" class="node">
<title>Accensione cld&#45;log (e mount volume ceph)</title>
<ellipse fill="none" stroke="black" cx="1953.04" cy="-738" rx="202.56" ry="18"/>
<text text-anchor="middle" x="1953.04" y="-734.3" font-family="Times-Roman" font-size="14.00">Accensione cld&#45;log (e mount volume ceph)</text>
</g>
<!-- Accensione cld&#45;px*&#45;&gt;Accensione cld&#45;log (e mount volume ceph) -->
<g id="edge54" class="edge">
<title>Accensione cld&#45;px*&#45;&gt;Accensione cld&#45;log (e mount volume ceph)</title>
<path fill="none" stroke="black" d="M1953.04,-791.7C1953.04,-783.98 1953.04,-774.71 1953.04,-766.11"/>
<polygon fill="black" stroke="black" points="1956.54,-766.1 1953.04,-756.1 1949.54,-766.1 1956.54,-766.1"/>
</g>
<!-- Accensione cluster percona -->
<g id="node38" class="node">
<title>Accensione cluster percona</title>
<ellipse fill="none" stroke="black" cx="1953.04" cy="-666" rx="133.78" ry="18"/>
<text text-anchor="middle" x="1953.04" y="-662.3" font-family="Times-Roman" font-size="14.00">Accensione cluster percona</text>
</g>
<!-- Accensione cld&#45;log (e mount volume ceph)&#45;&gt;Accensione cluster percona -->
<g id="edge52" class="edge">
<title>Accensione cld&#45;log (e mount volume ceph)&#45;&gt;Accensione cluster percona</title>
<path fill="none" stroke="black" d="M1953.04,-719.7C1953.04,-711.98 1953.04,-702.71 1953.04,-694.11"/>
<polygon fill="black" stroke="black" points="1956.54,-694.1 1953.04,-684.1 1949.54,-694.1 1956.54,-694.1"/>
</g>
<!-- Accensione altre VM cluster px -->
<g id="node39" class="node">
<title>Accensione altre VM cluster px</title>
<ellipse fill="none" stroke="black" cx="1953.04" cy="-594" rx="149.47" ry="18"/>
<text text-anchor="middle" x="1953.04" y="-590.3" font-family="Times-Roman" font-size="14.00">Accensione altre VM cluster px</text>
</g>
<!-- Accensione cluster percona&#45;&gt;Accensione altre VM cluster px -->
<g id="edge53" class="edge">
<title>Accensione cluster percona&#45;&gt;Accensione altre VM cluster px</title>
<path fill="none" stroke="black" d="M1953.04,-647.7C1953.04,-639.98 1953.04,-630.71 1953.04,-622.11"/>
<polygon fill="black" stroke="black" points="1956.54,-622.1 1953.04,-612.1 1949.54,-622.1 1956.54,-622.1"/>
</g>
<!-- Accensione cld&#45;ctrl* e start servizi OpenStack sui controller -->
<g id="node40" class="node">
<title>Accensione cld&#45;ctrl* e start servizi OpenStack sui controller</title>
<ellipse fill="none" stroke="black" cx="1953.04" cy="-522" rx="278.35" ry="18"/>
<text text-anchor="middle" x="1953.04" y="-518.3" font-family="Times-Roman" font-size="14.00">Accensione cld&#45;ctrl* e start servizi OpenStack sui controller</text>
</g>
<!-- Accensione altre VM cluster px&#45;&gt;Accensione cld&#45;ctrl* e start servizi OpenStack sui controller -->
<g id="edge55" class="edge">
<title>Accensione altre VM cluster px&#45;&gt;Accensione cld&#45;ctrl* e start servizi OpenStack sui controller</title>
<path fill="none" stroke="black" d="M1953.04,-575.7C1953.04,-567.98 1953.04,-558.71 1953.04,-550.11"/>
<polygon fill="black" stroke="black" points="1956.54,-550.1 1953.04,-540.1 1949.54,-550.1 1956.54,-550.1"/>
</g>
<!-- Accensione cld&#45;config e modifica puppet in modo che i servizi openstack partano sui compute -->
<g id="node41" class="node">
<title>Accensione cld&#45;config e modifica puppet in modo che i servizi openstack partano sui compute</title>
<ellipse fill="none" stroke="black" cx="1672.04" cy="-450" rx="435.42" ry="18"/>
<text text-anchor="middle" x="1672.04" y="-446.3" font-family="Times-Roman" font-size="14.00">Accensione cld&#45;config e modifica puppet in modo che i servizi openstack partano sui compute</text>
</g>
<!-- Accensione cld&#45;ctrl* e start servizi OpenStack sui controller&#45;&gt;Accensione cld&#45;config e modifica puppet in modo che i servizi openstack partano sui compute -->
<g id="edge56" class="edge">
<title>Accensione cld&#45;ctrl* e start servizi OpenStack sui controller&#45;&gt;Accensione cld&#45;config e modifica puppet in modo che i servizi openstack partano sui compute</title>
<path fill="none" stroke="black" d="M1886.8,-504.5C1845.71,-494.26 1792.72,-481.06 1749.66,-470.33"/>
<polygon fill="black" stroke="black" points="1750.33,-466.9 1739.78,-467.88 1748.64,-473.69 1750.33,-466.9"/>
</g>
<!-- Accensione t2&#45;cld&#45;nat -->
<g id="node44" class="node">
<title>Accensione t2&#45;cld&#45;nat</title>
<ellipse fill="none" stroke="black" cx="2234.04" cy="-450" rx="108.58" ry="18"/>
<text text-anchor="middle" x="2234.04" y="-446.3" font-family="Times-Roman" font-size="14.00">Accensione t2&#45;cld&#45;nat</text>
</g>
<!-- Accensione cld&#45;ctrl* e start servizi OpenStack sui controller&#45;&gt;Accensione t2&#45;cld&#45;nat -->
<g id="edge59" class="edge">
<title>Accensione cld&#45;ctrl* e start servizi OpenStack sui controller&#45;&gt;Accensione t2&#45;cld&#45;nat</title>
<path fill="none" stroke="black" d="M2019.28,-504.5C2063.63,-493.45 2121.83,-478.95 2166.46,-467.84"/>
<polygon fill="black" stroke="black" points="2167.48,-471.19 2176.34,-465.37 2165.79,-464.4 2167.48,-471.19"/>
</g>
<!-- Accensione compute node Padova -->
<g id="node42" class="node">
<title>Accensione compute node Padova</title>
<ellipse fill="none" stroke="black" cx="1497.04" cy="-378" rx="164.37" ry="18"/>
<text text-anchor="middle" x="1497.04" y="-374.3" font-family="Times-Roman" font-size="14.00">Accensione compute node Padova</text>
</g>
<!-- Accensione cld&#45;config e modifica puppet in modo che i servizi openstack partano sui compute&#45;&gt;Accensione compute node Padova -->
<g id="edge57" class="edge">
<title>Accensione cld&#45;config e modifica puppet in modo che i servizi openstack partano sui compute&#45;&gt;Accensione compute node Padova</title>
<path fill="none" stroke="black" d="M1629.68,-432.05C1604.99,-422.18 1573.71,-409.67 1547.72,-399.27"/>
<polygon fill="black" stroke="black" points="1548.99,-396.01 1538.41,-395.55 1546.39,-402.51 1548.99,-396.01"/>
</g>
<!-- Restart servizi OpenStack a LNL (basta runnare puppet) -->
<g id="node43" class="node">
<title>Restart servizi OpenStack a LNL (basta runnare puppet)</title>
<ellipse fill="none" stroke="black" cx="1943.04" cy="-378" rx="263.45" ry="18"/>
<text text-anchor="middle" x="1943.04" y="-374.3" font-family="Times-Roman" font-size="14.00">Restart servizi OpenStack a LNL (basta runnare puppet)</text>
</g>
<!-- Accensione cld&#45;config e modifica puppet in modo che i servizi openstack partano sui compute&#45;&gt;Restart servizi OpenStack a LNL (basta runnare puppet) -->
<g id="edge58" class="edge">
<title>Accensione cld&#45;config e modifica puppet in modo che i servizi openstack partano sui compute&#45;&gt;Restart servizi OpenStack a LNL (basta runnare puppet)</title>
<path fill="none" stroke="black" d="M1737.3,-432.14C1777.17,-421.84 1828.26,-408.65 1869.55,-397.98"/>
<polygon fill="black" stroke="black" points="1870.48,-401.36 1879.28,-395.47 1868.73,-394.58 1870.48,-401.36"/>
</g>
<!-- Accensione gate e altre VM di servizi -->
<g id="node45" class="node">
<title>Accensione gate e altre VM di servizi</title>
<ellipse fill="none" stroke="black" cx="1943.04" cy="-306" rx="176.27" ry="18"/>
<text text-anchor="middle" x="1943.04" y="-302.3" font-family="Times-Roman" font-size="14.00">Accensione gate e altre VM di servizi</text>
</g>
<!-- Accensione compute node Padova&#45;&gt;Accensione gate e altre VM di servizi -->
<g id="edge60" class="edge">
<title>Accensione compute node Padova&#45;&gt;Accensione gate e altre VM di servizi</title>
<path fill="none" stroke="black" d="M1587.03,-362.88C1660.57,-351.33 1764.53,-335.02 1841.13,-322.99"/>
<polygon fill="black" stroke="black" points="1841.94,-326.41 1851.28,-321.4 1840.86,-319.5 1841.94,-326.41"/>
</g>
<!-- Restart servizi OpenStack a LNL (basta runnare puppet)&#45;&gt;Accensione gate e altre VM di servizi -->
<g id="edge61" class="edge">
<title>Restart servizi OpenStack a LNL (basta runnare puppet)&#45;&gt;Accensione gate e altre VM di servizi</title>
<path fill="none" stroke="black" d="M1943.04,-359.7C1943.04,-351.98 1943.04,-342.71 1943.04,-334.11"/>
<polygon fill="black" stroke="black" points="1946.54,-334.1 1943.04,-324.1 1939.54,-334.1 1946.54,-334.1"/>
</g>
<!-- Accensione t2&#45;cld&#45;nat&#45;&gt;Accensione gate e altre VM di servizi -->
<g id="edge62" class="edge">
<title>Accensione t2&#45;cld&#45;nat&#45;&gt;Accensione gate e altre VM di servizi</title>
<path fill="none" stroke="black" d="M2235.54,-431.99C2236.29,-411.89 2234.2,-378.82 2215.04,-360 2195.25,-340.56 2138.09,-327.88 2081.25,-319.81"/>
<polygon fill="black" stroke="black" points="2081.4,-316.3 2071.02,-318.41 2080.45,-323.24 2081.4,-316.3"/>
</g>
<!-- Test -->
<g id="node46" class="node">
<title>Test</title>
<ellipse fill="none" stroke="black" cx="1943.04" cy="-234" rx="28.7" ry="18"/>
<text text-anchor="middle" x="1943.04" y="-230.3" font-family="Times-Roman" font-size="14.00">Test</text>
</g>
<!-- Accensione gate e altre VM di servizi&#45;&gt;Test -->
<g id="edge63" class="edge">
<title>Accensione gate e altre VM di servizi&#45;&gt;Test</title>
<path fill="none" stroke="black" d="M1943.04,-287.7C1943.04,-279.98 1943.04,-270.71 1943.04,-262.11"/>
<polygon fill="black" stroke="black" points="1946.54,-262.1 1943.04,-252.1 1939.54,-262.1 1946.54,-262.1"/>
</g>
<!-- Annuncio agli utenti -->
<g id="node47" class="node">
<title>Annuncio agli utenti</title>
<ellipse fill="none" stroke="black" cx="1943.04" cy="-162" rx="101.28" ry="18"/>
<text text-anchor="middle" x="1943.04" y="-158.3" font-family="Times-Roman" font-size="14.00">Annuncio agli utenti</text>
</g>
<!-- Test&#45;&gt;Annuncio agli utenti -->
<g id="edge64" class="edge">
<title>Test&#45;&gt;Annuncio agli utenti</title>
<path fill="none" stroke="black" d="M1943.04,-215.7C1943.04,-207.98 1943.04,-198.71 1943.04,-190.11"/>
<polygon fill="black" stroke="black" points="1946.54,-190.1 1943.04,-180.1 1939.54,-190.1 1946.54,-190.1"/>
</g>
<!-- Aggiornamento a AlmaLinux9 dei compute node che erano stati liberati da VM -->
<g id="node48" class="node">
<title>Aggiornamento a AlmaLinux9 dei compute node che erano stati liberati da VM</title>
<ellipse fill="none" stroke="black" cx="1943.04" cy="-90" rx="363.94" ry="18"/>
<text text-anchor="middle" x="1943.04" y="-86.3" font-family="Times-Roman" font-size="14.00">Aggiornamento a AlmaLinux9 dei compute node che erano stati liberati da VM</text>
</g>
<!-- Annuncio agli utenti&#45;&gt;Aggiornamento a AlmaLinux9 dei compute node che erano stati liberati da VM -->
<g id="edge65" class="edge">
<title>Annuncio agli utenti&#45;&gt;Aggiornamento a AlmaLinux9 dei compute node che erano stati liberati da VM</title>
<path fill="none" stroke="black" d="M1943.04,-143.7C1943.04,-135.98 1943.04,-126.71 1943.04,-118.11"/>
<polygon fill="black" stroke="black" points="1946.54,-118.1 1943.04,-108.1 1939.54,-118.1 1946.54,-118.1"/>
</g>
<!-- Disabilutazione di altri compute node da aggiornare a AlmaLinux9 -->
<g id="node49" class="node">
<title>Disabilutazione di altri compute node da aggiornare a AlmaLinux9</title>
<ellipse fill="none" stroke="black" cx="1943.04" cy="-18" rx="308.95" ry="18"/>
<text text-anchor="middle" x="1943.04" y="-14.3" font-family="Times-Roman" font-size="14.00">Disabilutazione di altri compute node da aggiornare a AlmaLinux9</text>
</g>
<!-- Aggiornamento a AlmaLinux9 dei compute node che erano stati liberati da VM&#45;&gt;Disabilutazione di altri compute node da aggiornare a AlmaLinux9 -->
<g id="edge66" class="edge">
<title>Aggiornamento a AlmaLinux9 dei compute node che erano stati liberati da VM&#45;&gt;Disabilutazione di altri compute node da aggiornare a AlmaLinux9</title>
<path fill="none" stroke="black" d="M1943.04,-71.7C1943.04,-63.98 1943.04,-54.71 1943.04,-46.11"/>
<polygon fill="black" stroke="black" points="1946.54,-46.1 1943.04,-36.1 1939.54,-46.1 1946.54,-46.1"/>
</g>
</g>
</svg>
