<?xml version="1.0" encoding="UTF-8" standalone="no"?>
<!DOCTYPE svg PUBLIC "-//W3C//DTD SVG 1.1//EN"
 "http://www.w3.org/Graphics/SVG/1.1/DTD/svg11.dtd">
<!-- Generated by graphviz version 2.30.1 (20201013.1554)
 -->
<!-- Title: %3 Pages: 1 -->
<svg width="2293pt" height="2204pt"
 viewBox="0.00 0.00 2293.39 2204.00" xmlns="http://www.w3.org/2000/svg" xmlns:xlink="http://www.w3.org/1999/xlink">
<g id="graph0" class="graph" transform="scale(1 1) rotate(0) translate(4 2200)">
<title>%3</title>
<polygon fill="white" stroke="white" points="-4,5 -4,-2200 2290.39,-2200 2290.39,5 -4,5"/>
<!-- Spegnimento delle VM dai compute&#45;node da liberare -->
<g id="node1" class="node"><title>Spegnimento delle VM dai compute&#45;node da liberare</title>
<ellipse fill="none" stroke="black" cx="1568" cy="-2178" rx="200.273" ry="18"/>
<text text-anchor="middle" x="1568" y="-2174.3" font-family="Times,serif" font-size="14.00">Spegnimento delle VM dai compute&#45;node da liberare</text>
</g>
<!-- Migrazione delle VM dai compute&#45;node da liberare -->
<g id="node2" class="node"><title>Migrazione delle VM dai compute&#45;node da liberare</title>
<ellipse fill="none" stroke="black" cx="1370" cy="-2106" rx="193.999" ry="18"/>
<text text-anchor="middle" x="1370" y="-2102.3" font-family="Times,serif" font-size="14.00">Migrazione delle VM dai compute&#45;node da liberare</text>
</g>
<!-- Spegnimento delle VM dai compute&#45;node da liberare&#45;&gt;Migrazione delle VM dai compute&#45;node da liberare -->
<g id="edge1" class="edge"><title>Spegnimento delle VM dai compute&#45;node da liberare&#45;&gt;Migrazione delle VM dai compute&#45;node da liberare</title>
<path fill="none" stroke="black" d="M1521.08,-2160.41C1492.7,-2150.38 1456.34,-2137.52 1426.41,-2126.94"/>
<polygon fill="black" stroke="black" points="1427.52,-2123.62 1416.93,-2123.59 1425.19,-2130.22 1427.52,-2123.62"/>
</g>
<!-- Spegnimento delle VM dagli altri compute node -->
<g id="node3" class="node"><title>Spegnimento delle VM dagli altri compute node</title>
<ellipse fill="none" stroke="black" cx="1766" cy="-2106" rx="182.926" ry="18"/>
<text text-anchor="middle" x="1766" y="-2102.3" font-family="Times,serif" font-size="14.00">Spegnimento delle VM dagli altri compute node</text>
</g>
<!-- Spegnimento delle VM dai compute&#45;node da liberare&#45;&gt;Spegnimento delle VM dagli altri compute node -->
<g id="edge2" class="edge"><title>Spegnimento delle VM dai compute&#45;node da liberare&#45;&gt;Spegnimento delle VM dagli altri compute node</title>
<path fill="none" stroke="black" d="M1614.92,-2160.41C1643.4,-2150.34 1679.92,-2137.43 1709.92,-2126.83"/>
<polygon fill="black" stroke="black" points="1711.15,-2130.1 1719.41,-2123.47 1708.82,-2123.5 1711.15,-2130.1"/>
</g>
<!-- Spegnimento Openstack su tutti i compute node (via puppet) e t2&#45;cld&#45;nat -->
<g id="node4" class="node"><title>Spegnimento Openstack su tutti i compute node (via puppet) e t2&#45;cld&#45;nat</title>
<ellipse fill="none" stroke="black" cx="1568" cy="-2034" rx="269.114" ry="18"/>
<text text-anchor="middle" x="1568" y="-2030.3" font-family="Times,serif" font-size="14.00">Spegnimento Openstack su tutti i compute node (via puppet) e t2&#45;cld&#45;nat</text>
</g>
<!-- Migrazione delle VM dai compute&#45;node da liberare&#45;&gt;Spegnimento Openstack su tutti i compute node (via puppet) e t2&#45;cld&#45;nat -->
<g id="edge3" class="edge"><title>Migrazione delle VM dai compute&#45;node da liberare&#45;&gt;Spegnimento Openstack su tutti i compute node (via puppet) e t2&#45;cld&#45;nat</title>
<path fill="none" stroke="black" d="M1416.67,-2088.5C1444.94,-2078.51 1481.19,-2065.69 1511.13,-2055.11"/>
<polygon fill="black" stroke="black" points="1512.35,-2058.39 1520.61,-2051.75 1510.02,-2051.79 1512.35,-2058.39"/>
</g>
<!-- Spegnimento delle VM dagli altri compute node&#45;&gt;Spegnimento Openstack su tutti i compute node (via puppet) e t2&#45;cld&#45;nat -->
<g id="edge4" class="edge"><title>Spegnimento delle VM dagli altri compute node&#45;&gt;Spegnimento Openstack su tutti i compute node (via puppet) e t2&#45;cld&#45;nat</title>
<path fill="none" stroke="black" d="M1719.33,-2088.5C1691.06,-2078.51 1654.81,-2065.69 1624.87,-2055.11"/>
<polygon fill="black" stroke="black" points="1625.98,-2051.79 1615.39,-2051.75 1623.65,-2058.39 1625.98,-2051.79"/>
</g>
<!-- Spegnimento OpenStack sui controller node -->
<g id="node5" class="node"><title>Spegnimento OpenStack sui controller node</title>
<ellipse fill="none" stroke="black" cx="1568" cy="-1962" rx="167.053" ry="18"/>
<text text-anchor="middle" x="1568" y="-1958.3" font-family="Times,serif" font-size="14.00">Spegnimento OpenStack sui controller node</text>
</g>
<!-- Spegnimento Openstack su tutti i compute node (via puppet) e t2&#45;cld&#45;nat&#45;&gt;Spegnimento OpenStack sui controller node -->
<g id="edge5" class="edge"><title>Spegnimento Openstack su tutti i compute node (via puppet) e t2&#45;cld&#45;nat&#45;&gt;Spegnimento OpenStack sui controller node</title>
<path fill="none" stroke="black" d="M1568,-2015.7C1568,-2007.98 1568,-1998.71 1568,-1990.11"/>
<polygon fill="black" stroke="black" points="1571.5,-1990.1 1568,-1980.1 1564.5,-1990.1 1571.5,-1990.1"/>
</g>
<!-- Spegnimento cld&#45;storage&#45;01 -->
<g id="node6" class="node"><title>Spegnimento cld&#45;storage&#45;01</title>
<ellipse fill="none" stroke="black" cx="1725" cy="-1818" rx="109.261" ry="18"/>
<text text-anchor="middle" x="1725" y="-1814.3" font-family="Times,serif" font-size="14.00">Spegnimento cld&#45;storage&#45;01</text>
</g>
<!-- Spegnimento OpenStack sui controller node&#45;&gt;Spegnimento cld&#45;storage&#45;01 -->
<g id="edge6" class="edge"><title>Spegnimento OpenStack sui controller node&#45;&gt;Spegnimento cld&#45;storage&#45;01</title>
<path fill="none" stroke="black" d="M1586.94,-1943.87C1614.91,-1918.57 1667.35,-1871.14 1698.93,-1842.58"/>
<polygon fill="black" stroke="black" points="1701.41,-1845.05 1706.48,-1835.75 1696.72,-1839.86 1701.41,-1845.05"/>
</g>
<!-- Spegnimento di tutti i compute node di Padova (tranne quelli in reinstallazione) -->
<g id="node7" class="node"><title>Spegnimento di tutti i compute node di Padova (tranne quelli in reinstallazione)</title>
<ellipse fill="none" stroke="black" cx="1963" cy="-1674" rx="293.186" ry="18"/>
<text text-anchor="middle" x="1963" y="-1670.3" font-family="Times,serif" font-size="14.00">Spegnimento di tutti i compute node di Padova (tranne quelli in reinstallazione)</text>
</g>
<!-- Spegnimento OpenStack sui controller node&#45;&gt;Spegnimento di tutti i compute node di Padova (tranne quelli in reinstallazione) -->
<g id="edge7" class="edge"><title>Spegnimento OpenStack sui controller node&#45;&gt;Spegnimento di tutti i compute node di Padova (tranne quelli in reinstallazione)</title>
<path fill="none" stroke="black" d="M1623.35,-1945C1682.3,-1925.99 1776.14,-1889.9 1843,-1836 1890.63,-1797.6 1929.35,-1736.19 1949,-1701.36"/>
<polygon fill="black" stroke="black" points="1952.24,-1702.72 1954.02,-1692.28 1946.11,-1699.33 1952.24,-1702.72"/>
</g>
<!-- Spegnimento cld&#45;ctrl* -->
<g id="node8" class="node"><title>Spegnimento cld&#45;ctrl*</title>
<ellipse fill="none" stroke="black" cx="2162" cy="-1602" rx="89.0632" ry="18"/>
<text text-anchor="middle" x="2162" y="-1598.3" font-family="Times,serif" font-size="14.00">Spegnimento cld&#45;ctrl*</text>
</g>
<!-- Spegnimento OpenStack sui controller node&#45;&gt;Spegnimento cld&#45;ctrl* -->
<g id="edge8" class="edge"><title>Spegnimento OpenStack sui controller node&#45;&gt;Spegnimento cld&#45;ctrl*</title>
<path fill="none" stroke="black" d="M1734.97,-1960.72C1946.54,-1955.74 2284,-1930.36 2284,-1819 2284,-1819 2284,-1819 2284,-1745 2284,-1704.55 2289.57,-1688.13 2265,-1656 2253.35,-1640.77 2236.09,-1629.53 2219.02,-1621.43"/>
<polygon fill="black" stroke="black" points="2220.15,-1618.1 2209.59,-1617.24 2217.31,-1624.5 2220.15,-1618.1"/>
</g>
<!-- Spegnimento rsyslog e umount del volume ceph da cld&#45;log (SergioT) -->
<g id="node9" class="node"><title>Spegnimento rsyslog e umount del volume ceph da cld&#45;log (SergioT)</title>
<ellipse fill="none" stroke="black" cx="630" cy="-1746" rx="254.167" ry="18"/>
<text text-anchor="middle" x="630" y="-1742.3" font-family="Times,serif" font-size="14.00">Spegnimento rsyslog e umount del volume ceph da cld&#45;log (SergioT)</text>
</g>
<!-- Spegnimento OpenStack sui controller node&#45;&gt;Spegnimento rsyslog e umount del volume ceph da cld&#45;log (SergioT) -->
<g id="edge9" class="edge"><title>Spegnimento OpenStack sui controller node&#45;&gt;Spegnimento rsyslog e umount del volume ceph da cld&#45;log (SergioT)</title>
<path fill="none" stroke="black" d="M1418.3,-1953.95C1268.28,-1945.78 1048.15,-1930.5 966,-1908 849.989,-1876.23 725.231,-1805.66 665.644,-1769.43"/>
<polygon fill="black" stroke="black" points="667.348,-1766.37 656.992,-1764.13 663.692,-1772.34 667.348,-1766.37"/>
</g>
<!-- Spegnimento cluster percona (Alberto) -->
<g id="node17" class="node"><title>Spegnimento cluster percona (Alberto)</title>
<ellipse fill="none" stroke="black" cx="1352" cy="-1890" rx="147.305" ry="18"/>
<text text-anchor="middle" x="1352" y="-1886.3" font-family="Times,serif" font-size="14.00">Spegnimento cluster percona (Alberto)</text>
</g>
<!-- Spegnimento OpenStack sui controller node&#45;&gt;Spegnimento cluster percona (Alberto) -->
<g id="edge17" class="edge"><title>Spegnimento OpenStack sui controller node&#45;&gt;Spegnimento cluster percona (Alberto)</title>
<path fill="none" stroke="black" d="M1517.9,-1944.76C1486.03,-1934.44 1444.6,-1921.01 1411.12,-1910.16"/>
<polygon fill="black" stroke="black" points="1412.05,-1906.78 1401.45,-1907.03 1409.89,-1913.44 1412.05,-1906.78"/>
</g>
<!-- Reinstallazione cld&#45;np&#45;gpu&#45;02 (Federica) -->
<g id="node20" class="node"><title>Reinstallazione cld&#45;np&#45;gpu&#45;02 (Federica)</title>
<ellipse fill="none" stroke="black" cx="852" cy="-1530" rx="155.005" ry="18"/>
<text text-anchor="middle" x="852" y="-1526.3" font-family="Times,serif" font-size="14.00">Reinstallazione cld&#45;np&#45;gpu&#45;02 (Federica)</text>
</g>
<!-- Spegnimento OpenStack sui controller node&#45;&gt;Reinstallazione cld&#45;np&#45;gpu&#45;02 (Federica) -->
<g id="edge22" class="edge"><title>Spegnimento OpenStack sui controller node&#45;&gt;Reinstallazione cld&#45;np&#45;gpu&#45;02 (Federica)</title>
<path fill="none" stroke="black" d="M1417.34,-1954.18C1243.12,-1942.08 980,-1908.92 980,-1819 980,-1819 980,-1819 980,-1673 980,-1619.69 929.61,-1577.37 892.062,-1553.24"/>
<polygon fill="black" stroke="black" points="893.651,-1550.11 883.312,-1547.8 889.951,-1556.05 893.651,-1550.11"/>
</g>
<!-- Reinstallazione cld&#45;dfa&#45;gpu&#45;04 (Loris) -->
<g id="node21" class="node"><title>Reinstallazione cld&#45;dfa&#45;gpu&#45;04 (Loris)</title>
<ellipse fill="none" stroke="black" cx="1172" cy="-1530" rx="146.356" ry="18"/>
<text text-anchor="middle" x="1172" y="-1526.3" font-family="Times,serif" font-size="14.00">Reinstallazione cld&#45;dfa&#45;gpu&#45;04 (Loris)</text>
</g>
<!-- Spegnimento OpenStack sui controller node&#45;&gt;Reinstallazione cld&#45;dfa&#45;gpu&#45;04 (Loris) -->
<g id="edge23" class="edge"><title>Spegnimento OpenStack sui controller node&#45;&gt;Reinstallazione cld&#45;dfa&#45;gpu&#45;04 (Loris)</title>
<path fill="none" stroke="black" d="M1564.16,-1943.61C1558.6,-1916.94 1549,-1864.27 1549,-1819 1549,-1819 1549,-1819 1549,-1673 1549,-1612.32 1375.81,-1568.66 1264.2,-1546.83"/>
<polygon fill="black" stroke="black" points="1264.75,-1543.37 1254.27,-1544.91 1263.42,-1550.24 1264.75,-1543.37"/>
</g>
<!-- Reinstallazione cld&#45;dfa&#45;04 (xx) -->
<g id="node22" class="node"><title>Reinstallazione cld&#45;dfa&#45;04 (xx)</title>
<ellipse fill="none" stroke="black" cx="1456" cy="-1530" rx="120.359" ry="18"/>
<text text-anchor="middle" x="1456" y="-1526.3" font-family="Times,serif" font-size="14.00">Reinstallazione cld&#45;dfa&#45;04 (xx)</text>
</g>
<!-- Spegnimento OpenStack sui controller node&#45;&gt;Reinstallazione cld&#45;dfa&#45;04 (xx) -->
<g id="edge24" class="edge"><title>Spegnimento OpenStack sui controller node&#45;&gt;Reinstallazione cld&#45;dfa&#45;04 (xx)</title>
<path fill="none" stroke="black" d="M1571.84,-1943.61C1577.4,-1916.94 1587,-1864.27 1587,-1819 1587,-1819 1587,-1819 1587,-1673 1587,-1632.03 1588.99,-1615.67 1563,-1584 1551.02,-1569.4 1534.01,-1558.47 1517.07,-1550.46"/>
<polygon fill="black" stroke="black" points="1518.26,-1547.16 1507.7,-1546.31 1515.42,-1553.56 1518.26,-1547.16"/>
</g>
<!-- Spegnimento di cld&#45;nat -->
<g id="node27" class="node"><title>Spegnimento di cld&#45;nat</title>
<ellipse fill="none" stroke="black" cx="1463" cy="-1386" rx="92.413" ry="18"/>
<text text-anchor="middle" x="1463" y="-1382.3" font-family="Times,serif" font-size="14.00">Spegnimento di cld&#45;nat</text>
</g>
<!-- Spegnimento cld&#45;storage&#45;01&#45;&gt;Spegnimento di cld&#45;nat -->
<g id="edge34" class="edge"><title>Spegnimento cld&#45;storage&#45;01&#45;&gt;Spegnimento di cld&#45;nat</title>
<path fill="none" stroke="black" d="M1706.99,-1800.06C1682.58,-1775.17 1642,-1726.11 1642,-1675 1642,-1675 1642,-1675 1642,-1529 1642,-1486.66 1638.16,-1469.72 1608,-1440 1589.29,-1421.56 1563.66,-1409.48 1539.15,-1401.58"/>
<polygon fill="black" stroke="black" points="1540.05,-1398.19 1529.47,-1398.65 1538.02,-1404.89 1540.05,-1398.19"/>
</g>
<!-- Spegnimento di tutti i compute node di Padova (tranne quelli in reinstallazione)&#45;&gt;Spegnimento di cld&#45;nat -->
<g id="edge35" class="edge"><title>Spegnimento di tutti i compute node di Padova (tranne quelli in reinstallazione)&#45;&gt;Spegnimento di cld&#45;nat</title>
<path fill="none" stroke="black" d="M1945.62,-1655.86C1901.27,-1613.06 1778.69,-1500.58 1656,-1440 1619.4,-1421.93 1575.76,-1409.29 1539.24,-1400.89"/>
<polygon fill="black" stroke="black" points="1539.66,-1397.4 1529.14,-1398.64 1538.14,-1404.23 1539.66,-1397.4"/>
</g>
<!-- Spegnimento cld&#45;ctrl*&#45;&gt;Spegnimento di cld&#45;nat -->
<g id="edge40" class="edge"><title>Spegnimento cld&#45;ctrl*&#45;&gt;Spegnimento di cld&#45;nat</title>
<path fill="none" stroke="black" d="M2134.38,-1584.78C2077.11,-1551.91 1940.35,-1477.42 1816,-1440 1730.98,-1414.42 1630.57,-1400.87 1558.62,-1393.9"/>
<polygon fill="black" stroke="black" points="1558.94,-1390.42 1548.66,-1392.96 1558.29,-1397.38 1558.94,-1390.42"/>
</g>
<!-- Aggiornamento a AlmaLinux9 di cld&#45;log (SergioT) -->
<g id="node10" class="node"><title>Aggiornamento a AlmaLinux9 di cld&#45;log (SergioT)</title>
<ellipse fill="none" stroke="black" cx="271" cy="-1530" rx="192.075" ry="18"/>
<text text-anchor="middle" x="271" y="-1526.3" font-family="Times,serif" font-size="14.00">Aggiornamento a AlmaLinux9 di cld&#45;log (SergioT)</text>
</g>
<!-- Spegnimento rsyslog e umount del volume ceph da cld&#45;log (SergioT)&#45;&gt;Aggiornamento a AlmaLinux9 di cld&#45;log (SergioT) -->
<g id="edge10" class="edge"><title>Spegnimento rsyslog e umount del volume ceph da cld&#45;log (SergioT)&#45;&gt;Aggiornamento a AlmaLinux9 di cld&#45;log (SergioT)</title>
<path fill="none" stroke="black" d="M593.7,-1728C573.004,-1718.02 546.738,-1704.87 524,-1692 442.964,-1646.12 351.658,-1585.75 303.993,-1553.54"/>
<polygon fill="black" stroke="black" points="305.855,-1550.58 295.613,-1547.87 301.929,-1556.37 305.855,-1550.58"/>
</g>
<!-- Spegnimento ceph&#45;*rgw -->
<g id="node12" class="node"><title>Spegnimento ceph&#45;*rgw</title>
<ellipse fill="none" stroke="black" cx="630" cy="-1674" rx="97.237" ry="18"/>
<text text-anchor="middle" x="630" y="-1670.3" font-family="Times,serif" font-size="14.00">Spegnimento ceph&#45;*rgw</text>
</g>
<!-- Spegnimento rsyslog e umount del volume ceph da cld&#45;log (SergioT)&#45;&gt;Spegnimento ceph&#45;*rgw -->
<g id="edge12" class="edge"><title>Spegnimento rsyslog e umount del volume ceph da cld&#45;log (SergioT)&#45;&gt;Spegnimento ceph&#45;*rgw</title>
<path fill="none" stroke="black" d="M630,-1727.7C630,-1719.98 630,-1710.71 630,-1702.11"/>
<polygon fill="black" stroke="black" points="633.5,-1702.1 630,-1692.1 626.5,-1702.1 633.5,-1702.1"/>
</g>
<!-- Spegnimento di cld&#45;log (SergioT) -->
<g id="node11" class="node"><title>Spegnimento di cld&#45;log (SergioT)</title>
<ellipse fill="none" stroke="black" cx="129" cy="-1458" rx="129.008" ry="18"/>
<text text-anchor="middle" x="129" y="-1454.3" font-family="Times,serif" font-size="14.00">Spegnimento di cld&#45;log (SergioT)</text>
</g>
<!-- Aggiornamento a AlmaLinux9 di cld&#45;log (SergioT)&#45;&gt;Spegnimento di cld&#45;log (SergioT) -->
<g id="edge11" class="edge"><title>Aggiornamento a AlmaLinux9 di cld&#45;log (SergioT)&#45;&gt;Spegnimento di cld&#45;log (SergioT)</title>
<path fill="none" stroke="black" d="M236.987,-1512.23C217.404,-1502.58 192.612,-1490.36 171.723,-1480.06"/>
<polygon fill="black" stroke="black" points="173.252,-1476.91 162.735,-1475.63 170.157,-1483.19 173.252,-1476.91"/>
</g>
<!-- Spegnimento di cld&#45;config -->
<g id="node26" class="node"><title>Spegnimento di cld&#45;config</title>
<ellipse fill="none" stroke="black" cx="913" cy="-1458" rx="104.461" ry="18"/>
<text text-anchor="middle" x="913" y="-1454.3" font-family="Times,serif" font-size="14.00">Spegnimento di cld&#45;config</text>
</g>
<!-- Aggiornamento a AlmaLinux9 di cld&#45;log (SergioT)&#45;&gt;Spegnimento di cld&#45;config -->
<g id="edge31" class="edge"><title>Aggiornamento a AlmaLinux9 di cld&#45;log (SergioT)&#45;&gt;Spegnimento di cld&#45;config</title>
<path fill="none" stroke="black" d="M406.574,-1517.2C513.347,-1507.46 665.87,-1492.6 799,-1476 808.606,-1474.8 818.652,-1473.45 828.629,-1472.05"/>
<polygon fill="black" stroke="black" points="829.16,-1475.5 838.564,-1470.63 828.17,-1468.58 829.16,-1475.5"/>
</g>
<!-- Spegnimento blade1 -->
<g id="node16" class="node"><title>Spegnimento blade1</title>
<ellipse fill="none" stroke="black" cx="253" cy="-1386" rx="83.2892" ry="18"/>
<text text-anchor="middle" x="253" y="-1382.3" font-family="Times,serif" font-size="14.00">Spegnimento blade1</text>
</g>
<!-- Spegnimento di cld&#45;log (SergioT)&#45;&gt;Spegnimento blade1 -->
<g id="edge19" class="edge"><title>Spegnimento di cld&#45;log (SergioT)&#45;&gt;Spegnimento blade1</title>
<path fill="none" stroke="black" d="M158.386,-1440.41C175.619,-1430.68 197.552,-1418.3 215.96,-1407.91"/>
<polygon fill="black" stroke="black" points="217.691,-1410.95 224.678,-1402.99 214.249,-1404.86 217.691,-1410.95"/>
</g>
<!-- Stop servizi ceph -->
<g id="node13" class="node"><title>Stop servizi ceph</title>
<ellipse fill="none" stroke="black" cx="597" cy="-1602" rx="71.2405" ry="18"/>
<text text-anchor="middle" x="597" y="-1598.3" font-family="Times,serif" font-size="14.00">Stop servizi ceph</text>
</g>
<!-- Spegnimento ceph&#45;*rgw&#45;&gt;Stop servizi ceph -->
<g id="edge13" class="edge"><title>Spegnimento ceph&#45;*rgw&#45;&gt;Stop servizi ceph</title>
<path fill="none" stroke="black" d="M622.012,-1656.05C618.257,-1648.09 613.694,-1638.41 609.497,-1629.51"/>
<polygon fill="black" stroke="black" points="612.574,-1627.83 605.144,-1620.28 606.242,-1630.81 612.574,-1627.83"/>
</g>
<!-- Spegnimento ceph&#45;osd&#45;* -->
<g id="node14" class="node"><title>Spegnimento ceph&#45;osd&#45;*</title>
<ellipse fill="none" stroke="black" cx="580" cy="-1530" rx="98.1881" ry="18"/>
<text text-anchor="middle" x="580" y="-1526.3" font-family="Times,serif" font-size="14.00">Spegnimento ceph&#45;osd&#45;*</text>
</g>
<!-- Stop servizi ceph&#45;&gt;Spegnimento ceph&#45;osd&#45;* -->
<g id="edge14" class="edge"><title>Stop servizi ceph&#45;&gt;Spegnimento ceph&#45;osd&#45;*</title>
<path fill="none" stroke="black" d="M592.798,-1583.7C590.904,-1575.9 588.623,-1566.51 586.516,-1557.83"/>
<polygon fill="black" stroke="black" points="589.915,-1557 584.154,-1548.1 583.113,-1558.65 589.915,-1557"/>
</g>
<!-- Spegnimento ceph&#45;mon* -->
<g id="node15" class="node"><title>Spegnimento ceph&#45;mon*</title>
<ellipse fill="none" stroke="black" cx="376" cy="-1458" rx="100.137" ry="18"/>
<text text-anchor="middle" x="376" y="-1454.3" font-family="Times,serif" font-size="14.00">Spegnimento ceph&#45;mon*</text>
</g>
<!-- Spegnimento ceph&#45;osd&#45;*&#45;&gt;Spegnimento ceph&#45;mon* -->
<g id="edge15" class="edge"><title>Spegnimento ceph&#45;osd&#45;*&#45;&gt;Spegnimento ceph&#45;mon*</title>
<path fill="none" stroke="black" d="M535.986,-1513.9C504.857,-1503.22 462.938,-1488.83 429.819,-1477.47"/>
<polygon fill="black" stroke="black" points="430.881,-1474.13 420.287,-1474.2 428.609,-1480.75 430.881,-1474.13"/>
</g>
<!-- Spegnimento ceph&#45;mon*&#45;&gt;Spegnimento blade1 -->
<g id="edge16" class="edge"><title>Spegnimento ceph&#45;mon*&#45;&gt;Spegnimento blade1</title>
<path fill="none" stroke="black" d="M347.162,-1440.59C330.154,-1430.91 308.45,-1418.56 290.168,-1408.15"/>
<polygon fill="black" stroke="black" points="291.655,-1404.97 281.233,-1403.07 288.193,-1411.06 291.655,-1404.97"/>
</g>
<!-- Spegnimento ceph&#45;mon*&#45;&gt;Spegnimento di cld&#45;nat -->
<g id="edge36" class="edge"><title>Spegnimento ceph&#45;mon*&#45;&gt;Spegnimento di cld&#45;nat</title>
<path fill="none" stroke="black" d="M445.641,-1445.07C458.69,-1443.14 472.238,-1441.34 485,-1440 803.724,-1406.59 1183.22,-1393.65 1361.27,-1389.14"/>
<polygon fill="black" stroke="black" points="1361.5,-1392.64 1371.41,-1388.89 1361.32,-1385.64 1361.5,-1392.64"/>
</g>
<!-- Spegnimento altre VM sul cluster cld&#45;px (Alberto) -->
<g id="node18" class="node"><title>Spegnimento altre VM sul cluster cld&#45;px (Alberto)</title>
<ellipse fill="none" stroke="black" cx="1331" cy="-1818" rx="189.175" ry="18"/>
<text text-anchor="middle" x="1331" y="-1814.3" font-family="Times,serif" font-size="14.00">Spegnimento altre VM sul cluster cld&#45;px (Alberto)</text>
</g>
<!-- Spegnimento cluster percona (Alberto)&#45;&gt;Spegnimento altre VM sul cluster cld&#45;px (Alberto) -->
<g id="edge18" class="edge"><title>Spegnimento cluster percona (Alberto)&#45;&gt;Spegnimento altre VM sul cluster cld&#45;px (Alberto)</title>
<path fill="none" stroke="black" d="M1346.81,-1871.7C1344.47,-1863.9 1341.65,-1854.51 1339.05,-1845.83"/>
<polygon fill="black" stroke="black" points="1342.36,-1844.68 1336.13,-1836.1 1335.65,-1846.69 1342.36,-1844.68"/>
</g>
<!-- Spegnimento cld&#45;px* (Alberto) -->
<g id="node19" class="node"><title>Spegnimento cld&#45;px* (Alberto)</title>
<ellipse fill="none" stroke="black" cx="1331" cy="-1746" rx="120.359" ry="18"/>
<text text-anchor="middle" x="1331" y="-1742.3" font-family="Times,serif" font-size="14.00">Spegnimento cld&#45;px* (Alberto)</text>
</g>
<!-- Spegnimento altre VM sul cluster cld&#45;px (Alberto)&#45;&gt;Spegnimento cld&#45;px* (Alberto) -->
<g id="edge20" class="edge"><title>Spegnimento altre VM sul cluster cld&#45;px (Alberto)&#45;&gt;Spegnimento cld&#45;px* (Alberto)</title>
<path fill="none" stroke="black" d="M1331,-1799.7C1331,-1791.98 1331,-1782.71 1331,-1774.11"/>
<polygon fill="black" stroke="black" points="1334.5,-1774.1 1331,-1764.1 1327.5,-1774.1 1334.5,-1774.1"/>
</g>
<!-- Spegnimento cld&#45;px* (Alberto)&#45;&gt;Spegnimento ceph&#45;*rgw -->
<g id="edge21" class="edge"><title>Spegnimento cld&#45;px* (Alberto)&#45;&gt;Spegnimento ceph&#45;*rgw</title>
<path fill="none" stroke="black" d="M1233.9,-1735.3C1098.99,-1721.83 856.479,-1697.62 723.511,-1684.34"/>
<polygon fill="black" stroke="black" points="723.644,-1680.83 713.345,-1683.32 722.948,-1687.8 723.644,-1680.83"/>
</g>
<!-- Spegnimento cld&#45;px* (Alberto)&#45;&gt;Spegnimento di cld&#45;nat -->
<g id="edge33" class="edge"><title>Spegnimento cld&#45;px* (Alberto)&#45;&gt;Spegnimento di cld&#45;nat</title>
<path fill="none" stroke="black" d="M1369.25,-1728.9C1428.37,-1701.64 1539.82,-1640.21 1585,-1548 1606.12,-1504.9 1611.32,-1480.14 1585,-1440 1573.52,-1422.49 1554.87,-1410.74 1535.56,-1402.86"/>
<polygon fill="black" stroke="black" points="1536.66,-1399.53 1526.06,-1399.29 1534.2,-1406.08 1536.66,-1399.53"/>
</g>
<!-- Spegnimento cld&#45;np&#45;gpu&#45;02 (Federica) -->
<g id="node23" class="node"><title>Spegnimento cld&#45;np&#45;gpu&#45;02 (Federica)</title>
<ellipse fill="none" stroke="black" cx="642" cy="-1458" rx="148.28" ry="18"/>
<text text-anchor="middle" x="642" y="-1454.3" font-family="Times,serif" font-size="14.00">Spegnimento cld&#45;np&#45;gpu&#45;02 (Federica)</text>
</g>
<!-- Reinstallazione cld&#45;np&#45;gpu&#45;02 (Federica)&#45;&gt;Spegnimento cld&#45;np&#45;gpu&#45;02 (Federica) -->
<g id="edge25" class="edge"><title>Reinstallazione cld&#45;np&#45;gpu&#45;02 (Federica)&#45;&gt;Spegnimento cld&#45;np&#45;gpu&#45;02 (Federica)</title>
<path fill="none" stroke="black" d="M803.558,-1512.85C772.712,-1502.57 732.583,-1489.19 700.037,-1478.35"/>
<polygon fill="black" stroke="black" points="700.792,-1474.91 690.198,-1475.07 698.578,-1481.55 700.792,-1474.91"/>
</g>
<!-- Reinstallazione cld&#45;np&#45;gpu&#45;02 (Federica)&#45;&gt;Spegnimento di cld&#45;config -->
<g id="edge28" class="edge"><title>Reinstallazione cld&#45;np&#45;gpu&#45;02 (Federica)&#45;&gt;Spegnimento di cld&#45;config</title>
<path fill="none" stroke="black" d="M866.766,-1512.05C874.149,-1503.58 883.225,-1493.17 891.375,-1483.82"/>
<polygon fill="black" stroke="black" points="894.015,-1486.11 897.946,-1476.28 888.737,-1481.51 894.015,-1486.11"/>
</g>
<!-- Spegnimento di cld&#45;dfa&#45;gpu&#45;04 (Loris) -->
<g id="node24" class="node"><title>Spegnimento di cld&#45;dfa&#45;gpu&#45;04 (Loris)</title>
<ellipse fill="none" stroke="black" cx="1184" cy="-1458" rx="148.28" ry="18"/>
<text text-anchor="middle" x="1184" y="-1454.3" font-family="Times,serif" font-size="14.00">Spegnimento di cld&#45;dfa&#45;gpu&#45;04 (Loris)</text>
</g>
<!-- Reinstallazione cld&#45;dfa&#45;gpu&#45;04 (Loris)&#45;&gt;Spegnimento di cld&#45;dfa&#45;gpu&#45;04 (Loris) -->
<g id="edge26" class="edge"><title>Reinstallazione cld&#45;dfa&#45;gpu&#45;04 (Loris)&#45;&gt;Spegnimento di cld&#45;dfa&#45;gpu&#45;04 (Loris)</title>
<path fill="none" stroke="black" d="M1174.97,-1511.7C1176.29,-1503.98 1177.88,-1494.71 1179.35,-1486.11"/>
<polygon fill="black" stroke="black" points="1182.83,-1486.55 1181.07,-1476.1 1175.93,-1485.37 1182.83,-1486.55"/>
</g>
<!-- Reinstallazione cld&#45;dfa&#45;gpu&#45;04 (Loris)&#45;&gt;Spegnimento di cld&#45;config -->
<g id="edge29" class="edge"><title>Reinstallazione cld&#45;dfa&#45;gpu&#45;04 (Loris)&#45;&gt;Spegnimento di cld&#45;config</title>
<path fill="none" stroke="black" d="M1114.2,-1513.38C1073.34,-1502.34 1018.59,-1487.54 976.511,-1476.17"/>
<polygon fill="black" stroke="black" points="977.217,-1472.73 966.65,-1473.5 975.391,-1479.49 977.217,-1472.73"/>
</g>
<!-- Spegnimento cld&#45;dfa&#45;04 (xx) -->
<g id="node25" class="node"><title>Spegnimento cld&#45;dfa&#45;04 (xx)</title>
<ellipse fill="none" stroke="black" cx="1463" cy="-1458" rx="113.135" ry="18"/>
<text text-anchor="middle" x="1463" y="-1454.3" font-family="Times,serif" font-size="14.00">Spegnimento cld&#45;dfa&#45;04 (xx)</text>
</g>
<!-- Reinstallazione cld&#45;dfa&#45;04 (xx)&#45;&gt;Spegnimento cld&#45;dfa&#45;04 (xx) -->
<g id="edge27" class="edge"><title>Reinstallazione cld&#45;dfa&#45;04 (xx)&#45;&gt;Spegnimento cld&#45;dfa&#45;04 (xx)</title>
<path fill="none" stroke="black" d="M1457.73,-1511.7C1458.5,-1503.98 1459.43,-1494.71 1460.29,-1486.11"/>
<polygon fill="black" stroke="black" points="1463.78,-1486.4 1461.29,-1476.1 1456.81,-1485.71 1463.78,-1486.4"/>
</g>
<!-- Reinstallazione cld&#45;dfa&#45;04 (xx)&#45;&gt;Spegnimento di cld&#45;config -->
<g id="edge30" class="edge"><title>Reinstallazione cld&#45;dfa&#45;04 (xx)&#45;&gt;Spegnimento di cld&#45;config</title>
<path fill="none" stroke="black" d="M1369.63,-1517.48C1355.39,-1515.62 1340.78,-1513.74 1327,-1512 1193.76,-1495.23 1160.09,-1493.91 1027,-1476 1017.65,-1474.74 1007.88,-1473.37 998.166,-1471.97"/>
<polygon fill="black" stroke="black" points="998.475,-1468.48 988.075,-1470.51 997.469,-1475.41 998.475,-1468.48"/>
</g>
<!-- Spegnimento cld&#45;np&#45;gpu&#45;02 (Federica)&#45;&gt;Spegnimento di cld&#45;nat -->
<g id="edge38" class="edge"><title>Spegnimento cld&#45;np&#45;gpu&#45;02 (Federica)&#45;&gt;Spegnimento di cld&#45;nat</title>
<path fill="none" stroke="black" d="M746.678,-1445.25C764.142,-1443.41 782.077,-1441.59 799,-1440 1001.2,-1420.99 1238.46,-1403.12 1367.52,-1393.77"/>
<polygon fill="black" stroke="black" points="1368.05,-1397.24 1377.77,-1393.03 1367.54,-1390.26 1368.05,-1397.24"/>
</g>
<!-- Spegnimento di cld&#45;dfa&#45;gpu&#45;04 (Loris)&#45;&gt;Spegnimento di cld&#45;nat -->
<g id="edge37" class="edge"><title>Spegnimento di cld&#45;dfa&#45;gpu&#45;04 (Loris)&#45;&gt;Spegnimento di cld&#45;nat</title>
<path fill="none" stroke="black" d="M1245.57,-1441.55C1291.02,-1430.15 1352.72,-1414.67 1398.78,-1403.11"/>
<polygon fill="black" stroke="black" points="1399.81,-1406.46 1408.66,-1400.63 1398.11,-1399.67 1399.81,-1406.46"/>
</g>
<!-- Spegnimento cld&#45;dfa&#45;04 (xx)&#45;&gt;Spegnimento di cld&#45;nat -->
<g id="edge39" class="edge"><title>Spegnimento cld&#45;dfa&#45;04 (xx)&#45;&gt;Spegnimento di cld&#45;nat</title>
<path fill="none" stroke="black" d="M1463,-1439.7C1463,-1431.98 1463,-1422.71 1463,-1414.11"/>
<polygon fill="black" stroke="black" points="1466.5,-1414.1 1463,-1404.1 1459.5,-1414.1 1466.5,-1414.1"/>
</g>
<!-- Spegnimento di cld&#45;config&#45;&gt;Spegnimento di cld&#45;nat -->
<g id="edge32" class="edge"><title>Spegnimento di cld&#45;config&#45;&gt;Spegnimento di cld&#45;nat</title>
<path fill="none" stroke="black" d="M988.384,-1445.46C1001.26,-1443.58 1014.51,-1441.69 1027,-1440 1147.6,-1423.68 1287.29,-1407.11 1375.39,-1396.94"/>
<polygon fill="black" stroke="black" points="1375.81,-1400.42 1385.34,-1395.8 1375.01,-1393.47 1375.81,-1400.42"/>
</g>
<!-- Sostituzione quadro elettrico CDZ -->
<g id="node28" class="node"><title>Sostituzione quadro elettrico CDZ</title>
<ellipse fill="none" stroke="black" cx="1463" cy="-1314" rx="131.408" ry="18"/>
<text text-anchor="middle" x="1463" y="-1310.3" font-family="Times,serif" font-size="14.00">Sostituzione quadro elettrico CDZ</text>
</g>
<!-- Spegnimento di cld&#45;nat&#45;&gt;Sostituzione quadro elettrico CDZ -->
<g id="edge41" class="edge"><title>Spegnimento di cld&#45;nat&#45;&gt;Sostituzione quadro elettrico CDZ</title>
<path fill="none" stroke="black" d="M1463,-1367.7C1463,-1359.98 1463,-1350.71 1463,-1342.11"/>
<polygon fill="black" stroke="black" points="1466.5,-1342.1 1463,-1332.1 1459.5,-1342.1 1466.5,-1342.1"/>
</g>
<!-- Accensione cld&#45;nat -->
<g id="node29" class="node"><title>Accensione cld&#45;nat</title>
<ellipse fill="none" stroke="black" cx="1463" cy="-1242" rx="77.0154" ry="18"/>
<text text-anchor="middle" x="1463" y="-1238.3" font-family="Times,serif" font-size="14.00">Accensione cld&#45;nat</text>
</g>
<!-- Sostituzione quadro elettrico CDZ&#45;&gt;Accensione cld&#45;nat -->
<g id="edge42" class="edge"><title>Sostituzione quadro elettrico CDZ&#45;&gt;Accensione cld&#45;nat</title>
<path fill="none" stroke="black" d="M1463,-1295.7C1463,-1287.98 1463,-1278.71 1463,-1270.11"/>
<polygon fill="black" stroke="black" points="1466.5,-1270.1 1463,-1260.1 1459.5,-1270.1 1466.5,-1270.1"/>
</g>
<!-- Accesione blade1 -->
<g id="node30" class="node"><title>Accesione blade1</title>
<ellipse fill="none" stroke="black" cx="1413" cy="-1170" rx="72.192" ry="18"/>
<text text-anchor="middle" x="1413" y="-1166.3" font-family="Times,serif" font-size="14.00">Accesione blade1</text>
</g>
<!-- Accensione cld&#45;nat&#45;&gt;Accesione blade1 -->
<g id="edge43" class="edge"><title>Accensione cld&#45;nat&#45;&gt;Accesione blade1</title>
<path fill="none" stroke="black" d="M1450.9,-1224.05C1444.88,-1215.63 1437.49,-1205.28 1430.83,-1195.97"/>
<polygon fill="black" stroke="black" points="1433.65,-1193.89 1424.99,-1187.79 1427.96,-1197.96 1433.65,-1193.89"/>
</g>
<!-- Accensione ceph&#45;mon&#45;01 -->
<g id="node32" class="node"><title>Accensione ceph&#45;mon&#45;01</title>
<ellipse fill="none" stroke="black" cx="1612" cy="-1098" rx="100.611" ry="18"/>
<text text-anchor="middle" x="1612" y="-1094.3" font-family="Times,serif" font-size="14.00">Accensione ceph&#45;mon&#45;01</text>
</g>
<!-- Accensione cld&#45;nat&#45;&gt;Accensione ceph&#45;mon&#45;01 -->
<g id="edge45" class="edge"><title>Accensione cld&#45;nat&#45;&gt;Accensione ceph&#45;mon&#45;01</title>
<path fill="none" stroke="black" d="M1480.38,-1224.43C1506.6,-1199.45 1556.39,-1151.99 1586.65,-1123.16"/>
<polygon fill="black" stroke="black" points="1589.44,-1125.33 1594.27,-1115.9 1584.61,-1120.27 1589.44,-1125.33"/>
</g>
<!-- Accensione ceph&#45;mon&#45;02/03 -->
<g id="node31" class="node"><title>Accensione ceph&#45;mon&#45;02/03</title>
<ellipse fill="none" stroke="black" cx="1381" cy="-1098" rx="112.16" ry="18"/>
<text text-anchor="middle" x="1381" y="-1094.3" font-family="Times,serif" font-size="14.00">Accensione ceph&#45;mon&#45;02/03</text>
</g>
<!-- Accesione blade1&#45;&gt;Accensione ceph&#45;mon&#45;02/03 -->
<g id="edge44" class="edge"><title>Accesione blade1&#45;&gt;Accensione ceph&#45;mon&#45;02/03</title>
<path fill="none" stroke="black" d="M1405.25,-1152.05C1401.61,-1144.09 1397.19,-1134.41 1393.12,-1125.51"/>
<polygon fill="black" stroke="black" points="1396.24,-1123.91 1388.9,-1116.28 1389.87,-1126.83 1396.24,-1123.91"/>
</g>
<!-- Accensione ceph&#45;osd* -->
<g id="node33" class="node"><title>Accensione ceph&#45;osd*</title>
<ellipse fill="none" stroke="black" cx="1496" cy="-1026" rx="89.5377" ry="18"/>
<text text-anchor="middle" x="1496" y="-1022.3" font-family="Times,serif" font-size="14.00">Accensione ceph&#45;osd*</text>
</g>
<!-- Accensione ceph&#45;mon&#45;02/03&#45;&gt;Accensione ceph&#45;osd* -->
<g id="edge47" class="edge"><title>Accensione ceph&#45;mon&#45;02/03&#45;&gt;Accensione ceph&#45;osd*</title>
<path fill="none" stroke="black" d="M1408.25,-1080.41C1423.83,-1070.93 1443.55,-1058.92 1460.35,-1048.7"/>
<polygon fill="black" stroke="black" points="1462.62,-1051.42 1469.34,-1043.23 1458.98,-1045.44 1462.62,-1051.42"/>
</g>
<!-- Accensione ceph&#45;mon&#45;01&#45;&gt;Accensione ceph&#45;osd* -->
<g id="edge46" class="edge"><title>Accensione ceph&#45;mon&#45;01&#45;&gt;Accensione ceph&#45;osd*</title>
<path fill="none" stroke="black" d="M1584.8,-1080.59C1568.95,-1071.02 1548.77,-1058.85 1531.66,-1048.52"/>
<polygon fill="black" stroke="black" points="1533.4,-1045.48 1523.03,-1043.31 1529.78,-1051.47 1533.4,-1045.48"/>
</g>
<!-- Attivazione cluster ceph -->
<g id="node34" class="node"><title>Attivazione cluster ceph</title>
<ellipse fill="none" stroke="black" cx="1496" cy="-954" rx="94.338" ry="18"/>
<text text-anchor="middle" x="1496" y="-950.3" font-family="Times,serif" font-size="14.00">Attivazione cluster ceph</text>
</g>
<!-- Accensione ceph&#45;osd*&#45;&gt;Attivazione cluster ceph -->
<g id="edge48" class="edge"><title>Accensione ceph&#45;osd*&#45;&gt;Attivazione cluster ceph</title>
<path fill="none" stroke="black" d="M1496,-1007.7C1496,-999.983 1496,-990.712 1496,-982.112"/>
<polygon fill="black" stroke="black" points="1499.5,-982.104 1496,-972.104 1492.5,-982.104 1499.5,-982.104"/>
</g>
<!-- Accensione cld&#45;px* -->
<g id="node35" class="node"><title>Accensione cld&#45;px*</title>
<ellipse fill="none" stroke="black" cx="1496" cy="-882" rx="78.9404" ry="18"/>
<text text-anchor="middle" x="1496" y="-878.3" font-family="Times,serif" font-size="14.00">Accensione cld&#45;px*</text>
</g>
<!-- Attivazione cluster ceph&#45;&gt;Accensione cld&#45;px* -->
<g id="edge49" class="edge"><title>Attivazione cluster ceph&#45;&gt;Accensione cld&#45;px*</title>
<path fill="none" stroke="black" d="M1496,-935.697C1496,-927.983 1496,-918.712 1496,-910.112"/>
<polygon fill="black" stroke="black" points="1499.5,-910.104 1496,-900.104 1492.5,-910.104 1499.5,-910.104"/>
</g>
<!-- Accensione cld&#45;log (e mount volume ceph) -->
<g id="node36" class="node"><title>Accensione cld&#45;log (e mount volume ceph)</title>
<ellipse fill="none" stroke="black" cx="1496" cy="-810" rx="163.203" ry="18"/>
<text text-anchor="middle" x="1496" y="-806.3" font-family="Times,serif" font-size="14.00">Accensione cld&#45;log (e mount volume ceph)</text>
</g>
<!-- Accensione cld&#45;px*&#45;&gt;Accensione cld&#45;log (e mount volume ceph) -->
<g id="edge52" class="edge"><title>Accensione cld&#45;px*&#45;&gt;Accensione cld&#45;log (e mount volume ceph)</title>
<path fill="none" stroke="black" d="M1496,-863.697C1496,-855.983 1496,-846.712 1496,-838.112"/>
<polygon fill="black" stroke="black" points="1499.5,-838.104 1496,-828.104 1492.5,-838.104 1499.5,-838.104"/>
</g>
<!-- Accensione cluster percona (Alberto) -->
<g id="node37" class="node"><title>Accensione cluster percona (Alberto)</title>
<ellipse fill="none" stroke="black" cx="1496" cy="-738" rx="141.531" ry="18"/>
<text text-anchor="middle" x="1496" y="-734.3" font-family="Times,serif" font-size="14.00">Accensione cluster percona (Alberto)</text>
</g>
<!-- Accensione cld&#45;log (e mount volume ceph)&#45;&gt;Accensione cluster percona (Alberto) -->
<g id="edge50" class="edge"><title>Accensione cld&#45;log (e mount volume ceph)&#45;&gt;Accensione cluster percona (Alberto)</title>
<path fill="none" stroke="black" d="M1496,-791.697C1496,-783.983 1496,-774.712 1496,-766.112"/>
<polygon fill="black" stroke="black" points="1499.5,-766.104 1496,-756.104 1492.5,-766.104 1499.5,-766.104"/>
</g>
<!-- Accensione altre VM cluster px -->
<g id="node38" class="node"><title>Accensione altre VM cluster px</title>
<ellipse fill="none" stroke="black" cx="1496" cy="-666" rx="122.259" ry="18"/>
<text text-anchor="middle" x="1496" y="-662.3" font-family="Times,serif" font-size="14.00">Accensione altre VM cluster px</text>
</g>
<!-- Accensione cluster percona (Alberto)&#45;&gt;Accensione altre VM cluster px -->
<g id="edge51" class="edge"><title>Accensione cluster percona (Alberto)&#45;&gt;Accensione altre VM cluster px</title>
<path fill="none" stroke="black" d="M1496,-719.697C1496,-711.983 1496,-702.712 1496,-694.112"/>
<polygon fill="black" stroke="black" points="1499.5,-694.104 1496,-684.104 1492.5,-694.104 1499.5,-694.104"/>
</g>
<!-- Accensione cld&#45;ctrl* e start servizi OpenStack sui controller -->
<g id="node39" class="node"><title>Accensione cld&#45;ctrl* e start servizi OpenStack sui controller</title>
<ellipse fill="none" stroke="black" cx="1496" cy="-594" rx="222.395" ry="18"/>
<text text-anchor="middle" x="1496" y="-590.3" font-family="Times,serif" font-size="14.00">Accensione cld&#45;ctrl* e start servizi OpenStack sui controller</text>
</g>
<!-- Accensione altre VM cluster px&#45;&gt;Accensione cld&#45;ctrl* e start servizi OpenStack sui controller -->
<g id="edge53" class="edge"><title>Accensione altre VM cluster px&#45;&gt;Accensione cld&#45;ctrl* e start servizi OpenStack sui controller</title>
<path fill="none" stroke="black" d="M1496,-647.697C1496,-639.983 1496,-630.712 1496,-622.112"/>
<polygon fill="black" stroke="black" points="1499.5,-622.104 1496,-612.104 1492.5,-622.104 1499.5,-622.104"/>
</g>
<!-- Accensione cld&#45;config e modifica puppet in modo che i servizi openstack partano sui compute -->
<g id="node40" class="node"><title>Accensione cld&#45;config e modifica puppet in modo che i servizi openstack partano sui compute</title>
<ellipse fill="none" stroke="black" cx="1310" cy="-522" rx="344.204" ry="18"/>
<text text-anchor="middle" x="1310" y="-518.3" font-family="Times,serif" font-size="14.00">Accensione cld&#45;config e modifica puppet in modo che i servizi openstack partano sui compute</text>
</g>
<!-- Accensione cld&#45;ctrl* e start servizi OpenStack sui controller&#45;&gt;Accensione cld&#45;config e modifica puppet in modo che i servizi openstack partano sui compute -->
<g id="edge54" class="edge"><title>Accensione cld&#45;ctrl* e start servizi OpenStack sui controller&#45;&gt;Accensione cld&#45;config e modifica puppet in modo che i servizi openstack partano sui compute</title>
<path fill="none" stroke="black" d="M1451.45,-576.233C1425.3,-566.392 1392.06,-553.882 1364.37,-543.463"/>
<polygon fill="black" stroke="black" points="1365.42,-540.119 1354.83,-539.873 1362.96,-546.671 1365.42,-540.119"/>
</g>
<!-- Accensione t2&#45;cld&#45;nat -->
<g id="node45" class="node"><title>Accensione t2&#45;cld&#45;nat</title>
<ellipse fill="none" stroke="black" cx="1682" cy="-450" rx="87.1385" ry="18"/>
<text text-anchor="middle" x="1682" y="-446.3" font-family="Times,serif" font-size="14.00">Accensione t2&#45;cld&#45;nat</text>
</g>
<!-- Accensione cld&#45;ctrl* e start servizi OpenStack sui controller&#45;&gt;Accensione t2&#45;cld&#45;nat -->
<g id="edge59" class="edge"><title>Accensione cld&#45;ctrl* e start servizi OpenStack sui controller&#45;&gt;Accensione t2&#45;cld&#45;nat</title>
<path fill="none" stroke="black" d="M1600.65,-577.993C1623.93,-570.104 1646.55,-558.134 1663,-540 1678.14,-523.316 1682.31,-497.605 1683.03,-478.1"/>
<polygon fill="black" stroke="black" points="1686.53,-478.032 1683.13,-467.999 1679.53,-477.966 1686.53,-478.032"/>
</g>
<!-- Accensione compute node Padova -->
<g id="node41" class="node"><title>Accensione compute node Padova</title>
<ellipse fill="none" stroke="black" cx="1066" cy="-450" rx="130.933" ry="18"/>
<text text-anchor="middle" x="1066" y="-446.3" font-family="Times,serif" font-size="14.00">Accensione compute node Padova</text>
</g>
<!-- Accensione cld&#45;config e modifica puppet in modo che i servizi openstack partano sui compute&#45;&gt;Accensione compute node Padova -->
<g id="edge55" class="edge"><title>Accensione cld&#45;config e modifica puppet in modo che i servizi openstack partano sui compute&#45;&gt;Accensione compute node Padova</title>
<path fill="none" stroke="black" d="M1251.56,-504.233C1214.8,-493.689 1167.37,-480.081 1129.66,-469.263"/>
<polygon fill="black" stroke="black" points="1130.37,-465.827 1119.8,-466.434 1128.44,-472.556 1130.37,-465.827"/>
</g>
<!-- Restart servizi OpenStack a LNL (basta runnare puppet) -->
<g id="node44" class="node"><title>Restart servizi OpenStack a LNL (basta runnare puppet)</title>
<ellipse fill="none" stroke="black" cx="1444" cy="-378" rx="209.397" ry="18"/>
<text text-anchor="middle" x="1444" y="-374.3" font-family="Times,serif" font-size="14.00">Restart servizi OpenStack a LNL (basta runnare puppet)</text>
</g>
<!-- Accensione cld&#45;config e modifica puppet in modo che i servizi openstack partano sui compute&#45;&gt;Restart servizi OpenStack a LNL (basta runnare puppet) -->
<g id="edge58" class="edge"><title>Accensione cld&#45;config e modifica puppet in modo che i servizi openstack partano sui compute&#45;&gt;Restart servizi OpenStack a LNL (basta runnare puppet)</title>
<path fill="none" stroke="black" d="M1326.16,-503.871C1349.71,-478.924 1393.56,-432.45 1420.62,-403.773"/>
<polygon fill="black" stroke="black" points="1423.46,-405.864 1427.78,-396.189 1418.37,-401.06 1423.46,-405.864"/>
</g>
<!-- Migrazione VM che erano state spostate temporaneamente su cld&#45;elx a cld&#45;dfa&#45;04 -->
<g id="node42" class="node"><title>Migrazione VM che erano state spostate temporaneamente su cld&#45;elx a cld&#45;dfa&#45;04</title>
<ellipse fill="none" stroke="black" cx="914" cy="-378" rx="301.36" ry="18"/>
<text text-anchor="middle" x="914" y="-374.3" font-family="Times,serif" font-size="14.00">Migrazione VM che erano state spostate temporaneamente su cld&#45;elx a cld&#45;dfa&#45;04</text>
</g>
<!-- Accensione compute node Padova&#45;&gt;Migrazione VM che erano state spostate temporaneamente su cld&#45;elx a cld&#45;dfa&#45;04 -->
<g id="edge56" class="edge"><title>Accensione compute node Padova&#45;&gt;Migrazione VM che erano state spostate temporaneamente su cld&#45;elx a cld&#45;dfa&#45;04</title>
<path fill="none" stroke="black" d="M1030.36,-432.588C1009.4,-422.935 982.671,-410.625 960.117,-400.238"/>
<polygon fill="black" stroke="black" points="961.282,-396.921 950.735,-395.917 958.354,-403.28 961.282,-396.921"/>
</g>
<!-- Accensione gate e altre VM di servizi -->
<g id="node43" class="node"><title>Accensione gate e altre VM di servizi</title>
<ellipse fill="none" stroke="black" cx="1444" cy="-306" rx="144.406" ry="18"/>
<text text-anchor="middle" x="1444" y="-302.3" font-family="Times,serif" font-size="14.00">Accensione gate e altre VM di servizi</text>
</g>
<!-- Migrazione VM che erano state spostate temporaneamente su cld&#45;elx a cld&#45;dfa&#45;04&#45;&gt;Accensione gate e altre VM di servizi -->
<g id="edge57" class="edge"><title>Migrazione VM che erano state spostate temporaneamente su cld&#45;elx a cld&#45;dfa&#45;04&#45;&gt;Accensione gate e altre VM di servizi</title>
<path fill="none" stroke="black" d="M1031.95,-361.421C1123.88,-349.28 1250.36,-332.575 1338.86,-320.887"/>
<polygon fill="black" stroke="black" points="1339.46,-324.338 1348.92,-319.558 1338.54,-317.398 1339.46,-324.338"/>
</g>
<!-- Test (Federica) -->
<g id="node46" class="node"><title>Test (Federica)</title>
<ellipse fill="none" stroke="black" cx="1444" cy="-234" rx="63.5411" ry="18"/>
<text text-anchor="middle" x="1444" y="-230.3" font-family="Times,serif" font-size="14.00">Test (Federica)</text>
</g>
<!-- Accensione gate e altre VM di servizi&#45;&gt;Test (Federica) -->
<g id="edge62" class="edge"><title>Accensione gate e altre VM di servizi&#45;&gt;Test (Federica)</title>
<path fill="none" stroke="black" d="M1444,-287.697C1444,-279.983 1444,-270.712 1444,-262.112"/>
<polygon fill="black" stroke="black" points="1447.5,-262.104 1444,-252.104 1440.5,-262.104 1447.5,-262.104"/>
</g>
<!-- Restart servizi OpenStack a LNL (basta runnare puppet)&#45;&gt;Accensione gate e altre VM di servizi -->
<g id="edge60" class="edge"><title>Restart servizi OpenStack a LNL (basta runnare puppet)&#45;&gt;Accensione gate e altre VM di servizi</title>
<path fill="none" stroke="black" d="M1444,-359.697C1444,-351.983 1444,-342.712 1444,-334.112"/>
<polygon fill="black" stroke="black" points="1447.5,-334.104 1444,-324.104 1440.5,-334.104 1447.5,-334.104"/>
</g>
<!-- Accensione t2&#45;cld&#45;nat&#45;&gt;Accensione gate e altre VM di servizi -->
<g id="edge61" class="edge"><title>Accensione t2&#45;cld&#45;nat&#45;&gt;Accensione gate e altre VM di servizi</title>
<path fill="none" stroke="black" d="M1683.14,-431.764C1683.47,-411.762 1680.76,-379.089 1662,-360 1645.4,-343.106 1595.37,-330.302 1547.42,-321.515"/>
<polygon fill="black" stroke="black" points="1548.01,-318.065 1537.55,-319.756 1546.78,-324.956 1548.01,-318.065"/>
</g>
<!-- Riaccensione cld&#45;storage&#45;01) -->
<g id="node47" class="node"><title>Riaccensione cld&#45;storage&#45;01)</title>
<ellipse fill="none" stroke="black" cx="1337" cy="-162" rx="112.16" ry="18"/>
<text text-anchor="middle" x="1337" y="-158.3" font-family="Times,serif" font-size="14.00">Riaccensione cld&#45;storage&#45;01)</text>
</g>
<!-- Test (Federica)&#45;&gt;Riaccensione cld&#45;storage&#45;01) -->
<g id="edge63" class="edge"><title>Test (Federica)&#45;&gt;Riaccensione cld&#45;storage&#45;01)</title>
<path fill="none" stroke="black" d="M1419.99,-217.291C1405.53,-207.836 1386.91,-195.649 1370.96,-185.218"/>
<polygon fill="black" stroke="black" points="1372.71,-182.178 1362.42,-179.633 1368.88,-188.036 1372.71,-182.178"/>
</g>
<!-- Annuncio agli utenti -->
<g id="node48" class="node"><title>Annuncio agli utenti</title>
<ellipse fill="none" stroke="black" cx="1551" cy="-162" rx="83.2892" ry="18"/>
<text text-anchor="middle" x="1551" y="-158.3" font-family="Times,serif" font-size="14.00">Annuncio agli utenti</text>
</g>
<!-- Test (Federica)&#45;&gt;Annuncio agli utenti -->
<g id="edge64" class="edge"><title>Test (Federica)&#45;&gt;Annuncio agli utenti</title>
<path fill="none" stroke="black" d="M1468.01,-217.291C1482.57,-207.768 1501.36,-195.474 1517.38,-184.994"/>
<polygon fill="black" stroke="black" points="1519.5,-187.791 1525.95,-179.387 1515.67,-181.933 1519.5,-187.791"/>
</g>
<!-- Aggiornamento a AlmaLinux9 dei compute node che erano stati liberati da VM -->
<g id="node49" class="node"><title>Aggiornamento a AlmaLinux9 dei compute node che erano stati liberati da VM</title>
<ellipse fill="none" stroke="black" cx="1551" cy="-90" rx="295.111" ry="18"/>
<text text-anchor="middle" x="1551" y="-86.3" font-family="Times,serif" font-size="14.00">Aggiornamento a AlmaLinux9 dei compute node che erano stati liberati da VM</text>
</g>
<!-- Annuncio agli utenti&#45;&gt;Aggiornamento a AlmaLinux9 dei compute node che erano stati liberati da VM -->
<g id="edge65" class="edge"><title>Annuncio agli utenti&#45;&gt;Aggiornamento a AlmaLinux9 dei compute node che erano stati liberati da VM</title>
<path fill="none" stroke="black" d="M1551,-143.697C1551,-135.983 1551,-126.712 1551,-118.112"/>
<polygon fill="black" stroke="black" points="1554.5,-118.104 1551,-108.104 1547.5,-118.104 1554.5,-118.104"/>
</g>
<!-- Disabilutazione di altri compute node da aggiornare a AlmaLinux9 -->
<g id="node50" class="node"><title>Disabilutazione di altri compute node da aggiornare a AlmaLinux9</title>
<ellipse fill="none" stroke="black" cx="1551" cy="-18" rx="248.392" ry="18"/>
<text text-anchor="middle" x="1551" y="-14.3" font-family="Times,serif" font-size="14.00">Disabilutazione di altri compute node da aggiornare a AlmaLinux9</text>
</g>
<!-- Aggiornamento a AlmaLinux9 dei compute node che erano stati liberati da VM&#45;&gt;Disabilutazione di altri compute node da aggiornare a AlmaLinux9 -->
<g id="edge66" class="edge"><title>Aggiornamento a AlmaLinux9 dei compute node che erano stati liberati da VM&#45;&gt;Disabilutazione di altri compute node da aggiornare a AlmaLinux9</title>
<path fill="none" stroke="black" d="M1551,-71.6966C1551,-63.9827 1551,-54.7125 1551,-46.1124"/>
<polygon fill="black" stroke="black" points="1554.5,-46.1043 1551,-36.1043 1547.5,-46.1044 1554.5,-46.1043"/>
</g>
</g>
</svg>
