<?xml version="1.0" encoding="UTF-8" standalone="no"?>
<!DOCTYPE svg PUBLIC "-//W3C//DTD SVG 1.1//EN"
 "http://www.w3.org/Graphics/SVG/1.1/DTD/svg11.dtd">
<!-- Generated by graphviz version 2.44.0 (0)
 -->
<!-- Pages: 1 -->
<svg width="1274pt" height="476pt"
 viewBox="0.00 0.00 1273.52 476.00" xmlns="http://www.w3.org/2000/svg" xmlns:xlink="http://www.w3.org/1999/xlink">
<g id="graph0" class="graph" transform="scale(1 1) rotate(0) translate(4 472)">
<polygon fill="white" stroke="transparent" points="-4,4 -4,-472 1269.52,-472 1269.52,4 -4,4"/>
<!-- Spegnimento delle VM dai compute node da aggiornare a AlmaLinux9 -->
<g id="node1" class="node">
<title>Spegnimento delle VM dai compute node da aggiornare a AlmaLinux9</title>
<ellipse fill="none" stroke="black" cx="892.33" cy="-450" rx="326.04" ry="18"/>
<text text-anchor="middle" x="892.33" y="-446.3" font-family="Times-Roman" font-size="14.00">Spegnimento delle VM dai compute node da aggiornare a AlmaLinux9</text>
</g>
<!-- Migrare le VM che stanno sui compute node da aggiornare -->
<g id="node2" class="node">
<title>Migrare le VM che stanno sui compute node da aggiornare</title>
<ellipse fill="none" stroke="black" cx="679.33" cy="-378" rx="274.05" ry="18"/>
<text text-anchor="middle" x="679.33" y="-374.3" font-family="Times-Roman" font-size="14.00">Migrare le VM che stanno sui compute node da aggiornare</text>
</g>
<!-- Spegnimento delle VM dai compute node da aggiornare a AlmaLinux9&#45;&gt;Migrare le VM che stanno sui compute node da aggiornare -->
<g id="edge1" class="edge">
<title>Spegnimento delle VM dai compute node da aggiornare a AlmaLinux9&#45;&gt;Migrare le VM che stanno sui compute node da aggiornare</title>
<path fill="none" stroke="black" d="M841.04,-432.14C810.59,-422.14 771.81,-409.39 739.86,-398.89"/>
<polygon fill="black" stroke="black" points="740.77,-395.51 730.18,-395.71 738.58,-402.16 740.77,-395.51"/>
</g>
<!-- Spegnimento delle altre VM -->
<g id="node3" class="node">
<title>Spegnimento delle altre VM</title>
<ellipse fill="none" stroke="black" cx="1130.33" cy="-378" rx="135.38" ry="18"/>
<text text-anchor="middle" x="1130.33" y="-374.3" font-family="Times-Roman" font-size="14.00">Spegnimento delle altre VM</text>
</g>
<!-- Spegnimento delle VM dai compute node da aggiornare a AlmaLinux9&#45;&gt;Spegnimento delle altre VM -->
<g id="edge2" class="edge">
<title>Spegnimento delle VM dai compute node da aggiornare a AlmaLinux9&#45;&gt;Spegnimento delle altre VM</title>
<path fill="none" stroke="black" d="M949.34,-432.23C984.79,-421.81 1030.42,-408.39 1066.99,-397.63"/>
<polygon fill="black" stroke="black" points="1068.45,-400.85 1077.05,-394.67 1066.47,-394.13 1068.45,-400.85"/>
</g>
<!-- Reinstallare cld&#45;np&#45;21 -->
<g id="node4" class="node">
<title>Reinstallare cld&#45;np&#45;21</title>
<ellipse fill="none" stroke="black" cx="306.33" cy="-306" rx="109.38" ry="18"/>
<text text-anchor="middle" x="306.33" y="-302.3" font-family="Times-Roman" font-size="14.00">Reinstallare cld&#45;np&#45;21</text>
</g>
<!-- Migrare le VM che stanno sui compute node da aggiornare&#45;&gt;Reinstallare cld&#45;np&#45;21 -->
<g id="edge3" class="edge">
<title>Migrare le VM che stanno sui compute node da aggiornare&#45;&gt;Reinstallare cld&#45;np&#45;21</title>
<path fill="none" stroke="black" d="M593.29,-360.85C530.62,-349.09 446.38,-333.28 385.4,-321.84"/>
<polygon fill="black" stroke="black" points="385.91,-318.37 375.44,-319.97 384.62,-325.25 385.91,-318.37"/>
</g>
<!-- Reinstallare cld&#45;np&#45;22 -->
<g id="node5" class="node">
<title>Reinstallare cld&#45;np&#45;22</title>
<ellipse fill="none" stroke="black" cx="542.33" cy="-234" rx="109.38" ry="18"/>
<text text-anchor="middle" x="542.33" y="-230.3" font-family="Times-Roman" font-size="14.00">Reinstallare cld&#45;np&#45;22</text>
</g>
<!-- Migrare le VM che stanno sui compute node da aggiornare&#45;&gt;Reinstallare cld&#45;np&#45;22 -->
<g id="edge4" class="edge">
<title>Migrare le VM che stanno sui compute node da aggiornare&#45;&gt;Reinstallare cld&#45;np&#45;22</title>
<path fill="none" stroke="black" d="M614.54,-360.42C594.86,-352.42 574.88,-340.77 561.33,-324 547.32,-306.66 542.98,-281.4 541.91,-262.21"/>
<polygon fill="black" stroke="black" points="545.4,-261.89 541.61,-252 538.41,-262.1 545.4,-261.89"/>
</g>
<!-- Reinstallare cld&#45;np&#45;23 -->
<g id="node6" class="node">
<title>Reinstallare cld&#45;np&#45;23</title>
<ellipse fill="none" stroke="black" cx="679.33" cy="-306" rx="109.38" ry="18"/>
<text text-anchor="middle" x="679.33" y="-302.3" font-family="Times-Roman" font-size="14.00">Reinstallare cld&#45;np&#45;23</text>
</g>
<!-- Migrare le VM che stanno sui compute node da aggiornare&#45;&gt;Reinstallare cld&#45;np&#45;23 -->
<g id="edge5" class="edge">
<title>Migrare le VM che stanno sui compute node da aggiornare&#45;&gt;Reinstallare cld&#45;np&#45;23</title>
<path fill="none" stroke="black" d="M679.33,-359.7C679.33,-351.98 679.33,-342.71 679.33,-334.11"/>
<polygon fill="black" stroke="black" points="682.83,-334.1 679.33,-324.1 675.83,-334.1 682.83,-334.1"/>
</g>
<!-- Reinstallare cld&#45;dfa&#45;07 -->
<g id="node7" class="node">
<title>Reinstallare cld&#45;dfa&#45;07</title>
<ellipse fill="none" stroke="black" cx="919.33" cy="-306" rx="112.38" ry="18"/>
<text text-anchor="middle" x="919.33" y="-302.3" font-family="Times-Roman" font-size="14.00">Reinstallare cld&#45;dfa&#45;07</text>
</g>
<!-- Migrare le VM che stanno sui compute node da aggiornare&#45;&gt;Reinstallare cld&#45;dfa&#45;07 -->
<g id="edge6" class="edge">
<title>Migrare le VM che stanno sui compute node da aggiornare&#45;&gt;Reinstallare cld&#45;dfa&#45;07</title>
<path fill="none" stroke="black" d="M736.51,-360.32C773.04,-349.67 820.38,-335.86 857.74,-324.96"/>
<polygon fill="black" stroke="black" points="858.88,-328.28 867.5,-322.12 856.92,-321.56 858.88,-328.28"/>
</g>
<!-- Spegnimento OpenStack su tutti i compute node e t2&#45;cld&#45;nat -->
<g id="node10" class="node">
<title>Spegnimento OpenStack su tutti i compute node e t2&#45;cld&#45;nat</title>
<ellipse fill="none" stroke="black" cx="679.33" cy="-162" rx="285.95" ry="18"/>
<text text-anchor="middle" x="679.33" y="-158.3" font-family="Times-Roman" font-size="14.00">Spegnimento OpenStack su tutti i compute node e t2&#45;cld&#45;nat</text>
</g>
<!-- Spegnimento delle altre VM&#45;&gt;Spegnimento OpenStack su tutti i compute node e t2&#45;cld&#45;nat -->
<g id="edge13" class="edge">
<title>Spegnimento delle altre VM&#45;&gt;Spegnimento OpenStack su tutti i compute node e t2&#45;cld&#45;nat</title>
<path fill="none" stroke="black" d="M1137.77,-359.87C1150.59,-327.35 1172.24,-256.31 1136.33,-216 1119.38,-196.97 1005.72,-183.74 896.01,-175.26"/>
<polygon fill="black" stroke="black" points="895.99,-171.75 885.75,-174.48 895.45,-178.73 895.99,-171.75"/>
</g>
<!-- Riportare su cld&#45;np&#45;21 le VM prima migrate -->
<g id="node9" class="node">
<title>Riportare su cld&#45;np&#45;21 le VM prima migrate</title>
<ellipse fill="none" stroke="black" cx="207.33" cy="-234" rx="207.16" ry="18"/>
<text text-anchor="middle" x="207.33" y="-230.3" font-family="Times-Roman" font-size="14.00">Riportare su cld&#45;np&#45;21 le VM prima migrate</text>
</g>
<!-- Reinstallare cld&#45;np&#45;21&#45;&gt;Riportare su cld&#45;np&#45;21 le VM prima migrate -->
<g id="edge8" class="edge">
<title>Reinstallare cld&#45;np&#45;21&#45;&gt;Riportare su cld&#45;np&#45;21 le VM prima migrate</title>
<path fill="none" stroke="black" d="M282.87,-288.41C269.99,-279.3 253.82,-267.87 239.75,-257.92"/>
<polygon fill="black" stroke="black" points="241.5,-254.87 231.31,-251.96 237.46,-260.59 241.5,-254.87"/>
</g>
<!-- Reinstallare cld&#45;np&#45;22&#45;&gt;Spegnimento OpenStack su tutti i compute node e t2&#45;cld&#45;nat -->
<g id="edge11" class="edge">
<title>Reinstallare cld&#45;np&#45;22&#45;&gt;Spegnimento OpenStack su tutti i compute node e t2&#45;cld&#45;nat</title>
<path fill="none" stroke="black" d="M574.11,-216.76C592.75,-207.24 616.55,-195.08 636.8,-184.73"/>
<polygon fill="black" stroke="black" points="638.51,-187.79 645.82,-180.12 635.32,-181.56 638.51,-187.79"/>
</g>
<!-- Reinstallare cld&#45;np&#45;23&#45;&gt;Spegnimento OpenStack su tutti i compute node e t2&#45;cld&#45;nat -->
<g id="edge12" class="edge">
<title>Reinstallare cld&#45;np&#45;23&#45;&gt;Spegnimento OpenStack su tutti i compute node e t2&#45;cld&#45;nat</title>
<path fill="none" stroke="black" d="M679.33,-287.87C679.33,-263.67 679.33,-219.21 679.33,-190.39"/>
<polygon fill="black" stroke="black" points="682.83,-190.19 679.33,-180.19 675.83,-190.19 682.83,-190.19"/>
</g>
<!-- Riportare su cld&#45;dfa&#45;07 le VM prima migrate -->
<g id="node8" class="node">
<title>Riportare su cld&#45;dfa&#45;07 le VM prima migrate</title>
<ellipse fill="none" stroke="black" cx="917.33" cy="-234" rx="209.86" ry="18"/>
<text text-anchor="middle" x="917.33" y="-230.3" font-family="Times-Roman" font-size="14.00">Riportare su cld&#45;dfa&#45;07 le VM prima migrate</text>
</g>
<!-- Reinstallare cld&#45;dfa&#45;07&#45;&gt;Riportare su cld&#45;dfa&#45;07 le VM prima migrate -->
<g id="edge7" class="edge">
<title>Reinstallare cld&#45;dfa&#45;07&#45;&gt;Riportare su cld&#45;dfa&#45;07 le VM prima migrate</title>
<path fill="none" stroke="black" d="M918.84,-287.7C918.62,-279.98 918.35,-270.71 918.11,-262.11"/>
<polygon fill="black" stroke="black" points="921.6,-262 917.82,-252.1 914.61,-262.2 921.6,-262"/>
</g>
<!-- Riportare su cld&#45;dfa&#45;07 le VM prima migrate&#45;&gt;Spegnimento OpenStack su tutti i compute node e t2&#45;cld&#45;nat -->
<g id="edge9" class="edge">
<title>Riportare su cld&#45;dfa&#45;07 le VM prima migrate&#45;&gt;Spegnimento OpenStack su tutti i compute node e t2&#45;cld&#45;nat</title>
<path fill="none" stroke="black" d="M861.53,-216.59C826.99,-206.43 782.45,-193.33 746.06,-182.62"/>
<polygon fill="black" stroke="black" points="746.6,-179.14 736.02,-179.67 744.63,-185.85 746.6,-179.14"/>
</g>
<!-- Riportare su cld&#45;np&#45;21 le VM prima migrate&#45;&gt;Spegnimento OpenStack su tutti i compute node e t2&#45;cld&#45;nat -->
<g id="edge10" class="edge">
<title>Riportare su cld&#45;np&#45;21 le VM prima migrate&#45;&gt;Spegnimento OpenStack su tutti i compute node e t2&#45;cld&#45;nat</title>
<path fill="none" stroke="black" d="M307.14,-218.2C381.99,-207.1 484.63,-191.88 563.16,-180.23"/>
<polygon fill="black" stroke="black" points="563.72,-183.68 573.1,-178.75 562.7,-176.76 563.72,-183.68"/>
</g>
<!-- Spegnere OpenStack sui controller node -->
<g id="node11" class="node">
<title>Spegnere OpenStack sui controller node</title>
<ellipse fill="none" stroke="black" cx="461.33" cy="-90" rx="192.27" ry="18"/>
<text text-anchor="middle" x="461.33" y="-86.3" font-family="Times-Roman" font-size="14.00">Spegnere OpenStack sui controller node</text>
</g>
<!-- Spegnimento OpenStack su tutti i compute node e t2&#45;cld&#45;nat&#45;&gt;Spegnere OpenStack sui controller node -->
<g id="edge14" class="edge">
<title>Spegnimento OpenStack su tutti i compute node e t2&#45;cld&#45;nat&#45;&gt;Spegnere OpenStack sui controller node</title>
<path fill="none" stroke="black" d="M627.12,-144.23C595.47,-134.07 554.97,-121.07 521.92,-110.46"/>
<polygon fill="black" stroke="black" points="522.96,-107.11 512.37,-107.39 520.82,-113.78 522.96,-107.11"/>
</g>
<!-- Spegnere i cld&#45;np*, cld&#45;dfa*, cld&#45;uni*, t2&#45;cld&#45;nat -->
<g id="node12" class="node">
<title>Spegnere i cld&#45;np*, cld&#45;dfa*, cld&#45;uni*, t2&#45;cld&#45;nat</title>
<ellipse fill="none" stroke="black" cx="898.33" cy="-90" rx="226.66" ry="18"/>
<text text-anchor="middle" x="898.33" y="-86.3" font-family="Times-Roman" font-size="14.00">Spegnere i cld&#45;np*, cld&#45;dfa*, cld&#45;uni*, t2&#45;cld&#45;nat</text>
</g>
<!-- Spegnimento OpenStack su tutti i compute node e t2&#45;cld&#45;nat&#45;&gt;Spegnere i cld&#45;np*, cld&#45;dfa*, cld&#45;uni*, t2&#45;cld&#45;nat -->
<g id="edge15" class="edge">
<title>Spegnimento OpenStack su tutti i compute node e t2&#45;cld&#45;nat&#45;&gt;Spegnere i cld&#45;np*, cld&#45;dfa*, cld&#45;uni*, t2&#45;cld&#45;nat</title>
<path fill="none" stroke="black" d="M731.79,-144.23C763.34,-134.15 803.67,-121.26 836.74,-110.69"/>
<polygon fill="black" stroke="black" points="837.84,-114.01 846.3,-107.63 835.71,-107.34 837.84,-114.01"/>
</g>
<!-- Spegnere cld&#45;ctrl* -->
<g id="node13" class="node">
<title>Spegnere cld&#45;ctrl*</title>
<ellipse fill="none" stroke="black" cx="461.33" cy="-18" rx="92.08" ry="18"/>
<text text-anchor="middle" x="461.33" y="-14.3" font-family="Times-Roman" font-size="14.00">Spegnere cld&#45;ctrl*</text>
</g>
<!-- Spegnere OpenStack sui controller node&#45;&gt;Spegnere cld&#45;ctrl* -->
<g id="edge16" class="edge">
<title>Spegnere OpenStack sui controller node&#45;&gt;Spegnere cld&#45;ctrl*</title>
<path fill="none" stroke="black" d="M461.33,-71.7C461.33,-63.98 461.33,-54.71 461.33,-46.11"/>
<polygon fill="black" stroke="black" points="464.83,-46.1 461.33,-36.1 457.83,-46.1 464.83,-46.1"/>
</g>
</g>
</svg>
