<?xml version="1.0" encoding="UTF-8" standalone="no"?>
<!DOCTYPE svg PUBLIC "-//W3C//DTD SVG 1.1//EN"
 "http://www.w3.org/Graphics/SVG/1.1/DTD/svg11.dtd">
<!-- Generated by graphviz version 2.44.0 (0)
 -->
<!-- Pages: 1 -->
<svg width="3129pt" height="692pt"
 viewBox="0.00 0.00 3128.81 692.00" xmlns="http://www.w3.org/2000/svg" xmlns:xlink="http://www.w3.org/1999/xlink">
<g id="graph0" class="graph" transform="scale(1 1) rotate(0) translate(4 688)">
<polygon fill="white" stroke="transparent" points="-4,4 -4,-688 3124.81,-688 3124.81,4 -4,4"/>
<!-- Spegnere i cld&#45;np*, cld&#45;dfa*, cld&#45;uni*, t2&#45;cld&#45;nat (lun) -->
<g id="node1" class="node">
<title>Spegnere i cld&#45;np*, cld&#45;dfa*, cld&#45;uni*, t2&#45;cld&#45;nat (lun)</title>
<ellipse fill="none" stroke="black" cx="1877.98" cy="-306" rx="250.76" ry="18"/>
<text text-anchor="middle" x="1877.98" y="-302.3" font-family="Times-Roman" font-size="14.00">Spegnere i cld&#45;np*, cld&#45;dfa*, cld&#45;uni*, t2&#45;cld&#45;nat (lun)</text>
</g>
<!-- Spostare sul piano alto i cld&#45;np*, cld&#45;dfa*, cld&#45;uni*, t2&#45;cld&#45;nat (non la blade) -->
<g id="node2" class="node">
<title>Spostare sul piano alto i cld&#45;np*, cld&#45;dfa*, cld&#45;uni*, t2&#45;cld&#45;nat (non la blade)</title>
<ellipse fill="none" stroke="black" cx="1877.98" cy="-234" rx="352.04" ry="18"/>
<text text-anchor="middle" x="1877.98" y="-230.3" font-family="Times-Roman" font-size="14.00">Spostare sul piano alto i cld&#45;np*, cld&#45;dfa*, cld&#45;uni*, t2&#45;cld&#45;nat (non la blade)</text>
</g>
<!-- Spegnere i cld&#45;np*, cld&#45;dfa*, cld&#45;uni*, t2&#45;cld&#45;nat (lun)&#45;&gt;Spostare sul piano alto i cld&#45;np*, cld&#45;dfa*, cld&#45;uni*, t2&#45;cld&#45;nat (non la blade) -->
<g id="edge1" class="edge">
<title>Spegnere i cld&#45;np*, cld&#45;dfa*, cld&#45;uni*, t2&#45;cld&#45;nat (lun)&#45;&gt;Spostare sul piano alto i cld&#45;np*, cld&#45;dfa*, cld&#45;uni*, t2&#45;cld&#45;nat (non la blade)</title>
<path fill="none" stroke="black" d="M1877.98,-287.7C1877.98,-279.98 1877.98,-270.71 1877.98,-262.11"/>
<polygon fill="black" stroke="black" points="1881.48,-262.1 1877.98,-252.1 1874.48,-262.1 1881.48,-262.1"/>
</g>
<!-- Spegnere e spostare sul piano alto cld&#45;nat -->
<g id="node16" class="node">
<title>Spegnere e spostare sul piano alto cld&#45;nat</title>
<ellipse fill="none" stroke="black" cx="1877.98" cy="-162" rx="200.66" ry="18"/>
<text text-anchor="middle" x="1877.98" y="-158.3" font-family="Times-Roman" font-size="14.00">Spegnere e spostare sul piano alto cld&#45;nat</text>
</g>
<!-- Spostare sul piano alto i cld&#45;np*, cld&#45;dfa*, cld&#45;uni*, t2&#45;cld&#45;nat (non la blade)&#45;&gt;Spegnere e spostare sul piano alto cld&#45;nat -->
<g id="edge18" class="edge">
<title>Spostare sul piano alto i cld&#45;np*, cld&#45;dfa*, cld&#45;uni*, t2&#45;cld&#45;nat (non la blade)&#45;&gt;Spegnere e spostare sul piano alto cld&#45;nat</title>
<path fill="none" stroke="black" d="M1877.98,-215.7C1877.98,-207.98 1877.98,-198.71 1877.98,-190.11"/>
<polygon fill="black" stroke="black" points="1881.48,-190.1 1877.98,-180.1 1874.48,-190.1 1881.48,-190.1"/>
</g>
<!-- Spegnere cld&#45;ctrl* (lun) -->
<g id="node3" class="node">
<title>Spegnere cld&#45;ctrl* (lun)</title>
<ellipse fill="none" stroke="black" cx="2205.98" cy="-666" rx="116.18" ry="18"/>
<text text-anchor="middle" x="2205.98" y="-662.3" font-family="Times-Roman" font-size="14.00">Spegnere cld&#45;ctrl* (lun)</text>
</g>
<!-- Spostare sul piano alto i cld&#45;ctrl* -->
<g id="node4" class="node">
<title>Spostare sul piano alto i cld&#45;ctrl*</title>
<ellipse fill="none" stroke="black" cx="1683.98" cy="-522" rx="157.07" ry="18"/>
<text text-anchor="middle" x="1683.98" y="-518.3" font-family="Times-Roman" font-size="14.00">Spostare sul piano alto i cld&#45;ctrl*</text>
</g>
<!-- Spegnere cld&#45;ctrl* (lun)&#45;&gt;Spostare sul piano alto i cld&#45;ctrl* -->
<g id="edge2" class="edge">
<title>Spegnere cld&#45;ctrl* (lun)&#45;&gt;Spostare sul piano alto i cld&#45;ctrl*</title>
<path fill="none" stroke="black" d="M2096.78,-659.73C1987.61,-653.03 1828.25,-638.94 1772.98,-612 1743.29,-597.52 1717.63,-569.11 1701.59,-548.27"/>
<polygon fill="black" stroke="black" points="1704.31,-546.06 1695.53,-540.14 1698.7,-550.25 1704.31,-546.06"/>
</g>
<!-- Spegnere e spostare cld&#45;storage&#45;01 sul piano alto -->
<g id="node5" class="node">
<title>Spegnere e spostare cld&#45;storage&#45;01 sul piano alto</title>
<ellipse fill="none" stroke="black" cx="2016.98" cy="-594" rx="235.06" ry="18"/>
<text text-anchor="middle" x="2016.98" y="-590.3" font-family="Times-Roman" font-size="14.00">Spegnere e spostare cld&#45;storage&#45;01 sul piano alto</text>
</g>
<!-- Spegnere cld&#45;ctrl* (lun)&#45;&gt;Spegnere e spostare cld&#45;storage&#45;01 sul piano alto -->
<g id="edge3" class="edge">
<title>Spegnere cld&#45;ctrl* (lun)&#45;&gt;Spegnere e spostare cld&#45;storage&#45;01 sul piano alto</title>
<path fill="none" stroke="black" d="M2163.09,-649.12C2135.99,-639.08 2100.71,-626.01 2071.61,-615.23"/>
<polygon fill="black" stroke="black" points="2072.6,-611.87 2062,-611.67 2070.16,-618.43 2072.6,-611.87"/>
</g>
<!-- Spegnere e spostare cld&#45;config sul piano alto -->
<g id="node6" class="node">
<title>Spegnere e spostare cld&#45;config sul piano alto</title>
<ellipse fill="none" stroke="black" cx="2906.98" cy="-522" rx="213.66" ry="18"/>
<text text-anchor="middle" x="2906.98" y="-518.3" font-family="Times-Roman" font-size="14.00">Spegnere e spostare cld&#45;config sul piano alto</text>
</g>
<!-- Spegnere cld&#45;ctrl* (lun)&#45;&gt;Spegnere e spostare cld&#45;config sul piano alto -->
<g id="edge4" class="edge">
<title>Spegnere cld&#45;ctrl* (lun)&#45;&gt;Spegnere e spostare cld&#45;config sul piano alto</title>
<path fill="none" stroke="black" d="M2288.42,-653.2C2354.29,-643.38 2448.85,-628.4 2530.98,-612 2637.22,-590.79 2759.06,-560.92 2834.53,-541.76"/>
<polygon fill="black" stroke="black" points="2835.58,-545.1 2844.41,-539.24 2833.86,-538.32 2835.58,-545.1"/>
</g>
<!-- Spegnere cluster percona -->
<g id="node7" class="node">
<title>Spegnere cluster percona</title>
<ellipse fill="none" stroke="black" cx="2395.98" cy="-594" rx="126.18" ry="18"/>
<text text-anchor="middle" x="2395.98" y="-590.3" font-family="Times-Roman" font-size="14.00">Spegnere cluster percona</text>
</g>
<!-- Spegnere cld&#45;ctrl* (lun)&#45;&gt;Spegnere cluster percona -->
<g id="edge5" class="edge">
<title>Spegnere cld&#45;ctrl* (lun)&#45;&gt;Spegnere cluster percona</title>
<path fill="none" stroke="black" d="M2249.1,-649.12C2276.93,-638.86 2313.35,-625.44 2342.95,-614.54"/>
<polygon fill="black" stroke="black" points="2344.54,-617.68 2352.71,-610.94 2342.12,-611.12 2344.54,-617.68"/>
</g>
<!-- Spostare sul piano alto i cld&#45;ctrl*&#45;&gt;Spegnere e spostare sul piano alto cld&#45;nat -->
<g id="edge17" class="edge">
<title>Spostare sul piano alto i cld&#45;ctrl*&#45;&gt;Spegnere e spostare sul piano alto cld&#45;nat</title>
<path fill="none" stroke="black" d="M1629.43,-505.07C1574.55,-485.29 1497.98,-445.73 1497.98,-379 1497.98,-379 1497.98,-379 1497.98,-305 1497.98,-264.55 1487.47,-243.66 1516.98,-216 1542.97,-191.64 1615.79,-178.45 1689.28,-171.33"/>
<polygon fill="black" stroke="black" points="1690.02,-174.77 1699.65,-170.36 1689.37,-167.8 1690.02,-174.77"/>
</g>
<!-- Spegnere e spostare cld&#45;config sul piano alto&#45;&gt;Spegnere e spostare sul piano alto cld&#45;nat -->
<g id="edge19" class="edge">
<title>Spegnere e spostare cld&#45;config sul piano alto&#45;&gt;Spegnere e spostare sul piano alto cld&#45;nat</title>
<path fill="none" stroke="black" d="M2911.64,-503.66C2918.36,-477.05 2929.98,-424.45 2929.98,-379 2929.98,-379 2929.98,-379 2929.98,-305 2929.98,-182.02 2788.58,-240.1 2667.98,-216 2557.85,-193.99 2266.43,-178.49 2070.04,-170.15"/>
<polygon fill="black" stroke="black" points="2070.02,-166.64 2059.88,-169.72 2069.72,-173.64 2070.02,-166.64"/>
</g>
<!-- Spegnere altre VM sul cluster proxmox -->
<g id="node8" class="node">
<title>Spegnere altre VM sul cluster proxmox</title>
<ellipse fill="none" stroke="black" cx="2395.98" cy="-522" rx="185.77" ry="18"/>
<text text-anchor="middle" x="2395.98" y="-518.3" font-family="Times-Roman" font-size="14.00">Spegnere altre VM sul cluster proxmox</text>
</g>
<!-- Spegnere cluster percona&#45;&gt;Spegnere altre VM sul cluster proxmox -->
<g id="edge6" class="edge">
<title>Spegnere cluster percona&#45;&gt;Spegnere altre VM sul cluster proxmox</title>
<path fill="none" stroke="black" d="M2395.98,-575.7C2395.98,-567.98 2395.98,-558.71 2395.98,-550.11"/>
<polygon fill="black" stroke="black" points="2399.48,-550.1 2395.98,-540.1 2392.48,-550.1 2399.48,-550.1"/>
</g>
<!-- Spegnere e spostare sul piano alto le cld&#45;px -->
<g id="node9" class="node">
<title>Spegnere e spostare sul piano alto le cld&#45;px</title>
<ellipse fill="none" stroke="black" cx="2559.98" cy="-450" rx="207.96" ry="18"/>
<text text-anchor="middle" x="2559.98" y="-446.3" font-family="Times-Roman" font-size="14.00">Spegnere e spostare sul piano alto le cld&#45;px</text>
</g>
<!-- Spegnere altre VM sul cluster proxmox&#45;&gt;Spegnere e spostare sul piano alto le cld&#45;px -->
<g id="edge7" class="edge">
<title>Spegnere altre VM sul cluster proxmox&#45;&gt;Spegnere e spostare sul piano alto le cld&#45;px</title>
<path fill="none" stroke="black" d="M2435.26,-504.23C2458.1,-494.49 2487.07,-482.12 2511.34,-471.76"/>
<polygon fill="black" stroke="black" points="2512.91,-474.9 2520.74,-467.75 2510.16,-468.46 2512.91,-474.9"/>
</g>
<!-- Spegnere cluster ceph -->
<g id="node10" class="node">
<title>Spegnere cluster ceph</title>
<ellipse fill="none" stroke="black" cx="2221.98" cy="-450" rx="112.38" ry="18"/>
<text text-anchor="middle" x="2221.98" y="-446.3" font-family="Times-Roman" font-size="14.00">Spegnere cluster ceph</text>
</g>
<!-- Spegnere altre VM sul cluster proxmox&#45;&gt;Spegnere cluster ceph -->
<g id="edge8" class="edge">
<title>Spegnere altre VM sul cluster proxmox&#45;&gt;Spegnere cluster ceph</title>
<path fill="none" stroke="black" d="M2354.75,-504.41C2329.6,-494.29 2297.31,-481.3 2270.88,-470.67"/>
<polygon fill="black" stroke="black" points="2272.01,-467.35 2261.43,-466.87 2269.4,-473.85 2272.01,-467.35"/>
</g>
<!-- Spegnere e spostare ceph&#45;mon&#45;01 sul piano alto -->
<g id="node11" class="node">
<title>Spegnere e spostare ceph&#45;mon&#45;01 sul piano alto</title>
<ellipse fill="none" stroke="black" cx="2221.98" cy="-378" rx="230.16" ry="18"/>
<text text-anchor="middle" x="2221.98" y="-374.3" font-family="Times-Roman" font-size="14.00">Spegnere e spostare ceph&#45;mon&#45;01 sul piano alto</text>
</g>
<!-- Spegnere cluster ceph&#45;&gt;Spegnere e spostare ceph&#45;mon&#45;01 sul piano alto -->
<g id="edge9" class="edge">
<title>Spegnere cluster ceph&#45;&gt;Spegnere e spostare ceph&#45;mon&#45;01 sul piano alto</title>
<path fill="none" stroke="black" d="M2221.98,-431.7C2221.98,-423.98 2221.98,-414.71 2221.98,-406.11"/>
<polygon fill="black" stroke="black" points="2225.48,-406.1 2221.98,-396.1 2218.48,-406.1 2225.48,-406.1"/>
</g>
<!-- Spegnere e spostare ceph&#45;osd* sul piano alto -->
<g id="node12" class="node">
<title>Spegnere e spostare ceph&#45;osd* sul piano alto</title>
<ellipse fill="none" stroke="black" cx="2685.98" cy="-378" rx="215.56" ry="18"/>
<text text-anchor="middle" x="2685.98" y="-374.3" font-family="Times-Roman" font-size="14.00">Spegnere e spostare ceph&#45;osd* sul piano alto</text>
</g>
<!-- Spegnere cluster ceph&#45;&gt;Spegnere e spostare ceph&#45;osd* sul piano alto -->
<g id="edge10" class="edge">
<title>Spegnere cluster ceph&#45;&gt;Spegnere e spostare ceph&#45;osd* sul piano alto</title>
<path fill="none" stroke="black" d="M2300.69,-437.13C2376.55,-425.68 2491.98,-408.27 2576.72,-395.48"/>
<polygon fill="black" stroke="black" points="2577.28,-398.94 2586.64,-393.99 2576.23,-392.02 2577.28,-398.94"/>
</g>
<!-- Spegnere ceph&#45;mon&#45;02/03 (stanno sulla blade) -->
<g id="node13" class="node">
<title>Spegnere ceph&#45;mon&#45;02/03 (stanno sulla blade)</title>
<ellipse fill="none" stroke="black" cx="1749.98" cy="-378" rx="223.66" ry="18"/>
<text text-anchor="middle" x="1749.98" y="-374.3" font-family="Times-Roman" font-size="14.00">Spegnere ceph&#45;mon&#45;02/03 (stanno sulla blade)</text>
</g>
<!-- Spegnere cluster ceph&#45;&gt;Spegnere ceph&#45;mon&#45;02/03 (stanno sulla blade) -->
<g id="edge11" class="edge">
<title>Spegnere cluster ceph&#45;&gt;Spegnere ceph&#45;mon&#45;02/03 (stanno sulla blade)</title>
<path fill="none" stroke="black" d="M2142.45,-437.2C2065.49,-425.79 1948.14,-408.39 1861.8,-395.58"/>
<polygon fill="black" stroke="black" points="1862.1,-392.09 1851.7,-394.08 1861.08,-399.01 1862.1,-392.09"/>
</g>
<!-- Spegnere cld&#45;log (sta sulla blade) -->
<g id="node14" class="node">
<title>Spegnere cld&#45;log (sta sulla blade)</title>
<ellipse fill="none" stroke="black" cx="2381.98" cy="-306" rx="161.67" ry="18"/>
<text text-anchor="middle" x="2381.98" y="-302.3" font-family="Times-Roman" font-size="14.00">Spegnere cld&#45;log (sta sulla blade)</text>
</g>
<!-- Spegnere e spostare ceph&#45;mon&#45;01 sul piano alto&#45;&gt;Spegnere cld&#45;log (sta sulla blade) -->
<g id="edge12" class="edge">
<title>Spegnere e spostare ceph&#45;mon&#45;01 sul piano alto&#45;&gt;Spegnere cld&#45;log (sta sulla blade)</title>
<path fill="none" stroke="black" d="M2260.31,-360.23C2282.75,-350.41 2311.27,-337.94 2335.05,-327.53"/>
<polygon fill="black" stroke="black" points="2336.49,-330.72 2344.25,-323.51 2333.68,-324.31 2336.49,-330.72"/>
</g>
<!-- Spegnere e spostare ceph&#45;osd* sul piano alto&#45;&gt;Spegnere cld&#45;log (sta sulla blade) -->
<g id="edge13" class="edge">
<title>Spegnere e spostare ceph&#45;osd* sul piano alto&#45;&gt;Spegnere cld&#45;log (sta sulla blade)</title>
<path fill="none" stroke="black" d="M2616.24,-360.94C2569.25,-350.12 2507.26,-335.85 2458.85,-324.7"/>
<polygon fill="black" stroke="black" points="2459.58,-321.28 2449.05,-322.44 2458.01,-328.1 2459.58,-321.28"/>
</g>
<!-- Spegnere ceph&#45;mon&#45;02/03 (stanno sulla blade)&#45;&gt;Spegnere cld&#45;log (sta sulla blade) -->
<g id="edge14" class="edge">
<title>Spegnere ceph&#45;mon&#45;02/03 (stanno sulla blade)&#45;&gt;Spegnere cld&#45;log (sta sulla blade)</title>
<path fill="none" stroke="black" d="M1875.6,-363.09C1987.74,-350.67 2150.89,-332.6 2261.45,-320.35"/>
<polygon fill="black" stroke="black" points="2262.1,-323.8 2271.65,-319.22 2261.33,-316.84 2262.1,-323.8"/>
</g>
<!-- Spegnere e spostare sul piano alto la blade -->
<g id="node15" class="node">
<title>Spegnere e spostare sul piano alto la blade</title>
<ellipse fill="none" stroke="black" cx="2453.98" cy="-234" rx="205.26" ry="18"/>
<text text-anchor="middle" x="2453.98" y="-230.3" font-family="Times-Roman" font-size="14.00">Spegnere e spostare sul piano alto la blade</text>
</g>
<!-- Spegnere cld&#45;log (sta sulla blade)&#45;&gt;Spegnere e spostare sul piano alto la blade -->
<g id="edge15" class="edge">
<title>Spegnere cld&#45;log (sta sulla blade)&#45;&gt;Spegnere e spostare sul piano alto la blade</title>
<path fill="none" stroke="black" d="M2399.41,-288.05C2408.37,-279.35 2419.43,-268.59 2429.25,-259.04"/>
<polygon fill="black" stroke="black" points="2431.73,-261.51 2436.46,-252.03 2426.85,-256.49 2431.73,-261.51"/>
</g>
<!-- Spegnere e spostare sul piano alto la blade&#45;&gt;Spegnere e spostare sul piano alto cld&#45;nat -->
<g id="edge16" class="edge">
<title>Spegnere e spostare sul piano alto la blade&#45;&gt;Spegnere e spostare sul piano alto cld&#45;nat</title>
<path fill="none" stroke="black" d="M2339.15,-219.04C2241.74,-207.21 2102.29,-190.26 2002.28,-178.11"/>
<polygon fill="black" stroke="black" points="2002.46,-174.6 1992.11,-176.87 2001.62,-181.55 2002.46,-174.6"/>
</g>
<!-- Spostamento switches Cloud e T2 sul piano alto -->
<g id="node22" class="node">
<title>Spostamento switches Cloud e T2 sul piano alto</title>
<ellipse fill="none" stroke="black" cx="1299.98" cy="-90" rx="226.66" ry="18"/>
<text text-anchor="middle" x="1299.98" y="-86.3" font-family="Times-Roman" font-size="14.00">Spostamento switches Cloud e T2 sul piano alto</text>
</g>
<!-- Spegnere e spostare sul piano alto cld&#45;nat&#45;&gt;Spostamento switches Cloud e T2 sul piano alto -->
<g id="edge24" class="edge">
<title>Spegnere e spostare sul piano alto cld&#45;nat&#45;&gt;Spostamento switches Cloud e T2 sul piano alto</title>
<path fill="none" stroke="black" d="M1763.79,-147.17C1667.41,-135.5 1529.49,-118.8 1429.11,-106.64"/>
<polygon fill="black" stroke="black" points="1429.25,-103.13 1418.91,-105.4 1428.41,-110.08 1429.25,-103.13"/>
</g>
<!-- Spegnere e spostare sul piano alto i wp* e gli up&#45;01* -->
<g id="node17" class="node">
<title>Spegnere e spostare sul piano alto i wp* e gli up&#45;01*</title>
<ellipse fill="none" stroke="black" cx="720.98" cy="-306" rx="248.86" ry="18"/>
<text text-anchor="middle" x="720.98" y="-302.3" font-family="Times-Roman" font-size="14.00">Spegnere e spostare sul piano alto i wp* e gli up&#45;01*</text>
</g>
<!-- Spegnere e spostare t2&#45;nfs&#45;ui sul piano alto -->
<g id="node18" class="node">
<title>Spegnere e spostare t2&#45;nfs&#45;ui sul piano alto</title>
<ellipse fill="none" stroke="black" cx="207.98" cy="-234" rx="207.96" ry="18"/>
<text text-anchor="middle" x="207.98" y="-230.3" font-family="Times-Roman" font-size="14.00">Spegnere e spostare t2&#45;nfs&#45;ui sul piano alto</text>
</g>
<!-- Spegnere e spostare sul piano alto i wp* e gli up&#45;01*&#45;&gt;Spegnere e spostare t2&#45;nfs&#45;ui sul piano alto -->
<g id="edge20" class="edge">
<title>Spegnere e spostare sul piano alto i wp* e gli up&#45;01*&#45;&gt;Spegnere e spostare t2&#45;nfs&#45;ui sul piano alto</title>
<path fill="none" stroke="black" d="M609.98,-289.85C525.67,-278.35 410.03,-262.57 324.41,-250.89"/>
<polygon fill="black" stroke="black" points="324.77,-247.4 314.38,-249.52 323.82,-254.34 324.77,-247.4"/>
</g>
<!-- Spegnere e spostare t2&#45;squid&#45;02 sul piano alto -->
<g id="node21" class="node">
<title>Spegnere e spostare t2&#45;squid&#45;02 sul piano alto</title>
<ellipse fill="none" stroke="black" cx="1247.98" cy="-234" rx="222.06" ry="18"/>
<text text-anchor="middle" x="1247.98" y="-230.3" font-family="Times-Roman" font-size="14.00">Spegnere e spostare t2&#45;squid&#45;02 sul piano alto</text>
</g>
<!-- Spegnere e spostare sul piano alto i wp* e gli up&#45;01*&#45;&gt;Spegnere e spostare t2&#45;squid&#45;02 sul piano alto -->
<g id="edge23" class="edge">
<title>Spegnere e spostare sul piano alto i wp* e gli up&#45;01*&#45;&gt;Spegnere e spostare t2&#45;squid&#45;02 sul piano alto</title>
<path fill="none" stroke="black" d="M834.36,-289.94C920.73,-278.47 1039.38,-262.71 1127.46,-251.01"/>
<polygon fill="black" stroke="black" points="1128.06,-254.46 1137.51,-249.67 1127.13,-247.52 1128.06,-254.46"/>
</g>
<!-- Spegnere t2&#45;kvm* (e VM li&#39; ospitate) e spostala sul piano alto -->
<g id="node23" class="node">
<title>Spegnere t2&#45;kvm* (e VM li&#39; ospitate) e spostala sul piano alto</title>
<ellipse fill="none" stroke="black" cx="720.98" cy="-234" rx="286.75" ry="18"/>
<text text-anchor="middle" x="720.98" y="-230.3" font-family="Times-Roman" font-size="14.00">Spegnere t2&#45;kvm* (e VM li&#39; ospitate) e spostala sul piano alto</text>
</g>
<!-- Spegnere e spostare sul piano alto i wp* e gli up&#45;01*&#45;&gt;Spegnere t2&#45;kvm* (e VM li&#39; ospitate) e spostala sul piano alto -->
<g id="edge26" class="edge">
<title>Spegnere e spostare sul piano alto i wp* e gli up&#45;01*&#45;&gt;Spegnere t2&#45;kvm* (e VM li&#39; ospitate) e spostala sul piano alto</title>
<path fill="none" stroke="black" d="M720.98,-287.7C720.98,-279.98 720.98,-270.71 720.98,-262.11"/>
<polygon fill="black" stroke="black" points="724.48,-262.1 720.98,-252.1 717.48,-262.1 724.48,-262.1"/>
</g>
<!-- Spegnimento e spostamento t2&#45;master sul piano alto -->
<g id="node20" class="node">
<title>Spegnimento e spostamento t2&#45;master sul piano alto</title>
<ellipse fill="none" stroke="black" cx="984.98" cy="-162" rx="250.76" ry="18"/>
<text text-anchor="middle" x="984.98" y="-158.3" font-family="Times-Roman" font-size="14.00">Spegnimento e spostamento t2&#45;master sul piano alto</text>
</g>
<!-- Spegnere e spostare t2&#45;nfs&#45;ui sul piano alto&#45;&gt;Spegnimento e spostamento t2&#45;master sul piano alto -->
<g id="edge22" class="edge">
<title>Spegnere e spostare t2&#45;nfs&#45;ui sul piano alto&#45;&gt;Spegnimento e spostamento t2&#45;master sul piano alto</title>
<path fill="none" stroke="black" d="M346.45,-220.53C480.77,-208.42 684.42,-190.08 825.46,-177.37"/>
<polygon fill="black" stroke="black" points="825.86,-180.85 835.51,-176.47 825.23,-173.88 825.86,-180.85"/>
</g>
<!-- Spegnere e spostare t2&#45;ui* sul piano alto -->
<g id="node19" class="node">
<title>Spegnere e spostare t2&#45;ui* sul piano alto</title>
<ellipse fill="none" stroke="black" cx="207.98" cy="-306" rx="194.97" ry="18"/>
<text text-anchor="middle" x="207.98" y="-302.3" font-family="Times-Roman" font-size="14.00">Spegnere e spostare t2&#45;ui* sul piano alto</text>
</g>
<!-- Spegnere e spostare t2&#45;ui* sul piano alto&#45;&gt;Spegnere e spostare t2&#45;nfs&#45;ui sul piano alto -->
<g id="edge21" class="edge">
<title>Spegnere e spostare t2&#45;ui* sul piano alto&#45;&gt;Spegnere e spostare t2&#45;nfs&#45;ui sul piano alto</title>
<path fill="none" stroke="black" d="M207.98,-287.7C207.98,-279.98 207.98,-270.71 207.98,-262.11"/>
<polygon fill="black" stroke="black" points="211.48,-262.1 207.98,-252.1 204.48,-262.1 211.48,-262.1"/>
</g>
<!-- Spegnimento e spostamento t2&#45;master sul piano alto&#45;&gt;Spostamento switches Cloud e T2 sul piano alto -->
<g id="edge28" class="edge">
<title>Spegnimento e spostamento t2&#45;master sul piano alto&#45;&gt;Spostamento switches Cloud e T2 sul piano alto</title>
<path fill="none" stroke="black" d="M1058.04,-144.76C1105.73,-134.17 1168.1,-120.31 1217.56,-109.32"/>
<polygon fill="black" stroke="black" points="1218.59,-112.67 1227.59,-107.09 1217.07,-105.84 1218.59,-112.67"/>
</g>
<!-- Spegnere e spostare t2&#45;squid&#45;02 sul piano alto&#45;&gt;Spegnimento e spostamento t2&#45;master sul piano alto -->
<g id="edge25" class="edge">
<title>Spegnere e spostare t2&#45;squid&#45;02 sul piano alto&#45;&gt;Spegnimento e spostamento t2&#45;master sul piano alto</title>
<path fill="none" stroke="black" d="M1186.65,-216.68C1147.81,-206.34 1097.42,-192.93 1056.72,-182.09"/>
<polygon fill="black" stroke="black" points="1057.43,-178.66 1046.86,-179.47 1055.63,-185.43 1057.43,-178.66"/>
</g>
<!-- Ricablaggio -->
<g id="node24" class="node">
<title>Ricablaggio</title>
<ellipse fill="none" stroke="black" cx="1299.98" cy="-18" rx="63.09" ry="18"/>
<text text-anchor="middle" x="1299.98" y="-14.3" font-family="Times-Roman" font-size="14.00">Ricablaggio</text>
</g>
<!-- Spostamento switches Cloud e T2 sul piano alto&#45;&gt;Ricablaggio -->
<g id="edge29" class="edge">
<title>Spostamento switches Cloud e T2 sul piano alto&#45;&gt;Ricablaggio</title>
<path fill="none" stroke="black" d="M1299.98,-71.7C1299.98,-63.98 1299.98,-54.71 1299.98,-46.11"/>
<polygon fill="black" stroke="black" points="1303.48,-46.1 1299.98,-36.1 1296.48,-46.1 1303.48,-46.1"/>
</g>
<!-- Spegnere t2&#45;kvm* (e VM li&#39; ospitate) e spostala sul piano alto&#45;&gt;Spegnimento e spostamento t2&#45;master sul piano alto -->
<g id="edge27" class="edge">
<title>Spegnere t2&#45;kvm* (e VM li&#39; ospitate) e spostala sul piano alto&#45;&gt;Spegnimento e spostamento t2&#45;master sul piano alto</title>
<path fill="none" stroke="black" d="M783.55,-216.41C822.42,-206.1 872.54,-192.81 913.05,-182.07"/>
<polygon fill="black" stroke="black" points="914.1,-185.42 922.87,-179.47 912.3,-178.65 914.1,-185.42"/>
</g>
</g>
</svg>
